<mxfile host="app.diagrams.net" modified="2021-06-01T21:00:51.447Z" agent="5.0 (Windows NT 10.0; Win64; x64) AppleWebKit/537.36 (KHTML, like Gecko) Chrome/90.0.4430.212 Safari/537.36" etag="t6fRi9BBjUxldgHQ72jt" version="14.7.0" type="github">
  <diagram id="L7HbKPoqp5m_SwyzfuJl" name="Страница 1">
    <mxGraphModel dx="2370" dy="1340" grid="1" gridSize="12" guides="1" tooltips="1" connect="1" arrows="0" fold="1" page="1" pageScale="1" pageWidth="3300" pageHeight="2339" math="0" shadow="0">
      <root>
        <mxCell id="0" />
        <mxCell id="1" parent="0" />
        <mxCell id="1buuXYzWd8PRPCw0UcvQ-16" value="" style="endArrow=none;html=1;fontFamily=Times New Roman;fontSize=11;entryX=1;entryY=1;entryDx=0;entryDy=0;exitX=1;exitY=0;exitDx=0;exitDy=0;" parent="1" edge="1">
          <mxGeometry width="50" height="50" relative="1" as="geometry">
            <mxPoint x="78.74000000000001" y="2319" as="sourcePoint" />
            <mxPoint x="78.74000000000001" y="19.685000000000002" as="targetPoint" />
          </mxGeometry>
        </mxCell>
        <mxCell id="1buuXYzWd8PRPCw0UcvQ-20" value="" style="endArrow=none;html=1;fontFamily=Times New Roman;fontSize=11;entryX=1;entryY=0;entryDx=0;entryDy=0;exitX=0;exitY=0;exitDx=0;exitDy=0;" parent="1" edge="1">
          <mxGeometry width="50" height="50" relative="1" as="geometry">
            <mxPoint x="3279.9999999999995" y="2319.0000000000005" as="sourcePoint" />
            <mxPoint x="78.74000000000001" y="2319" as="targetPoint" />
          </mxGeometry>
        </mxCell>
        <mxCell id="1buuXYzWd8PRPCw0UcvQ-23" value="" style="endArrow=none;html=1;fontFamily=Times New Roman;fontSize=11;exitX=0;exitY=0;exitDx=0;exitDy=0;" parent="1" edge="1">
          <mxGeometry width="50" height="50" relative="1" as="geometry">
            <mxPoint x="3279.9999999999995" y="2319.0000000000005" as="sourcePoint" />
            <mxPoint x="3280" y="19.689999999999998" as="targetPoint" />
          </mxGeometry>
        </mxCell>
        <mxCell id="1buuXYzWd8PRPCw0UcvQ-25" value="" style="endArrow=none;html=1;fontFamily=Times New Roman;fontSize=11;entryX=0;entryY=1;entryDx=0;entryDy=0;exitX=1;exitY=1;exitDx=0;exitDy=0;" parent="1" edge="1">
          <mxGeometry width="50" height="50" relative="1" as="geometry">
            <mxPoint x="78.74000000000001" y="19.685000000000002" as="sourcePoint" />
            <mxPoint x="3279.9999999999995" y="19.684999999999775" as="targetPoint" />
          </mxGeometry>
        </mxCell>
        <mxCell id="1buuXYzWd8PRPCw0UcvQ-29" value="" style="rounded=0;whiteSpace=wrap;html=1;fontFamily=Times New Roman;strokeColor=#000000;fillColor=none;" parent="1" vertex="1">
          <mxGeometry x="2551.64844" y="2161.4179999999997" width="728.3449999999999" height="157.48" as="geometry" />
        </mxCell>
        <mxCell id="1buuXYzWd8PRPCw0UcvQ-38" value="" style="rounded=0;whiteSpace=wrap;html=1;strokeColor=#000000;fillColor=none;" parent="1" vertex="1">
          <mxGeometry x="2551.65" y="2161.36" width="255.905" height="19.685" as="geometry" />
        </mxCell>
        <mxCell id="1buuXYzWd8PRPCw0UcvQ-39" value="" style="rounded=0;whiteSpace=wrap;html=1;strokeColor=#000000;fillColor=none;" parent="1" vertex="1">
          <mxGeometry x="2551.65" y="2181.0499999999997" width="255.905" height="19.685" as="geometry" />
        </mxCell>
        <mxCell id="1buuXYzWd8PRPCw0UcvQ-40" value="" style="rounded=0;whiteSpace=wrap;html=1;strokeColor=#000000;fillColor=none;" parent="1" vertex="1">
          <mxGeometry x="2551.63" y="2200.7400000000002" width="255.905" height="19.685" as="geometry" />
        </mxCell>
        <mxCell id="1buuXYzWd8PRPCw0UcvQ-41" value="" style="rounded=0;whiteSpace=wrap;html=1;strokeColor=#000000;fillColor=none;" parent="1" vertex="1">
          <mxGeometry x="2551.63" y="2220.4500000000003" width="255.905" height="19.685" as="geometry" />
        </mxCell>
        <mxCell id="1buuXYzWd8PRPCw0UcvQ-42" value="" style="rounded=0;whiteSpace=wrap;html=1;strokeColor=#000000;fillColor=none;" parent="1" vertex="1">
          <mxGeometry x="2551.65" y="2240.1100000000006" width="255.905" height="19.685" as="geometry" />
        </mxCell>
        <mxCell id="1buuXYzWd8PRPCw0UcvQ-43" value="" style="rounded=0;whiteSpace=wrap;html=1;strokeColor=#000000;fillColor=none;" parent="1" vertex="1">
          <mxGeometry x="2551.65" y="2259.8" width="255.905" height="19.685" as="geometry" />
        </mxCell>
        <mxCell id="1buuXYzWd8PRPCw0UcvQ-44" value="" style="rounded=0;whiteSpace=wrap;html=1;strokeColor=#000000;fillColor=none;" parent="1" vertex="1">
          <mxGeometry x="2551.63" y="2279.4800000000005" width="255.905" height="19.685" as="geometry" />
        </mxCell>
        <mxCell id="1buuXYzWd8PRPCw0UcvQ-45" value="" style="rounded=0;whiteSpace=wrap;html=1;strokeColor=#000000;fillColor=none;" parent="1" vertex="1">
          <mxGeometry x="2551.65" y="2299.17" width="255.905" height="19.685" as="geometry" />
        </mxCell>
        <mxCell id="1buuXYzWd8PRPCw0UcvQ-49" value="" style="rounded=0;whiteSpace=wrap;html=1;strokeColor=#000000;fillColor=none;" parent="1" vertex="1">
          <mxGeometry x="2551.63" y="2161.42" width="27.558999999999997" height="59.055" as="geometry" />
        </mxCell>
        <mxCell id="1buuXYzWd8PRPCw0UcvQ-51" value="" style="rounded=0;whiteSpace=wrap;html=1;strokeColor=#000000;fillColor=none;" parent="1" vertex="1">
          <mxGeometry x="2618.58" y="2161.3700000000003" width="90.551" height="157.48" as="geometry" />
        </mxCell>
        <mxCell id="1buuXYzWd8PRPCw0UcvQ-53" value="" style="rounded=0;whiteSpace=wrap;html=1;strokeColor=#000000;fillColor=none;" parent="1" vertex="1">
          <mxGeometry x="2768.1800000000003" y="2161.42" width="39.37" height="157.48" as="geometry" />
        </mxCell>
        <mxCell id="1buuXYzWd8PRPCw0UcvQ-54" value="" style="rounded=0;whiteSpace=wrap;html=1;fontFamily=Times New Roman;strokeColor=#000000;fillColor=none;" parent="1" vertex="1">
          <mxGeometry x="2807.5399999999995" y="2220.4300000000003" width="275.59" height="98.425" as="geometry" />
        </mxCell>
        <mxCell id="1buuXYzWd8PRPCw0UcvQ-56" value="" style="rounded=0;whiteSpace=wrap;html=1;fontFamily=Times New Roman;strokeColor=#000000;fillColor=none;" parent="1" vertex="1">
          <mxGeometry x="3083.14" y="2259.8" width="196.85" height="59.05" as="geometry" />
        </mxCell>
        <mxCell id="1buuXYzWd8PRPCw0UcvQ-57" value="" style="rounded=0;whiteSpace=wrap;html=1;fontFamily=Times New Roman;strokeColor=#000000;fillColor=none;" parent="1" vertex="1">
          <mxGeometry x="3083.129999999999" y="2220.4500000000003" width="196.85" height="39.37" as="geometry" />
        </mxCell>
        <mxCell id="1buuXYzWd8PRPCw0UcvQ-58" value="" style="rounded=0;whiteSpace=wrap;html=1;strokeColor=#000000;fillColor=none;" parent="1" vertex="1">
          <mxGeometry x="3083.13" y="2220.4500000000003" width="59.055" height="39.37" as="geometry" />
        </mxCell>
        <mxCell id="1buuXYzWd8PRPCw0UcvQ-59" value="" style="rounded=0;whiteSpace=wrap;html=1;strokeColor=#000000;fillColor=none;" parent="1" vertex="1">
          <mxGeometry x="3142.1800000000003" y="2220.4500000000003" width="59.055" height="39.37" as="geometry" />
        </mxCell>
        <mxCell id="1buuXYzWd8PRPCw0UcvQ-60" value="" style="rounded=0;whiteSpace=wrap;html=1;strokeColor=#000000;fillColor=none;" parent="1" vertex="1">
          <mxGeometry x="3201.2400000000002" y="2220.43" width="78.74" height="39.37" as="geometry" />
        </mxCell>
        <mxCell id="1buuXYzWd8PRPCw0UcvQ-61" value="&lt;font style=&quot;font-size: 17px&quot;&gt;ІС КР 122 АІ204 ПЗ&lt;/font&gt;" style="rounded=0;whiteSpace=wrap;html=1;fontFamily=Times New Roman;strokeColor=#000000;fillColor=none;verticalAlign=top;" parent="1" vertex="1">
          <mxGeometry x="2807.54" y="2161.3700000000003" width="472.44" height="59.055" as="geometry" />
        </mxCell>
        <mxCell id="1buuXYzWd8PRPCw0UcvQ-63" value="" style="rounded=0;whiteSpace=wrap;html=1;strokeColor=#000000;fillColor=none;" parent="1" vertex="1">
          <mxGeometry x="3083.1400000000003" y="2240.14" width="196.85" height="19.685" as="geometry" />
        </mxCell>
        <mxCell id="1buuXYzWd8PRPCw0UcvQ-65" value="" style="rounded=0;whiteSpace=wrap;html=1;fillColor=none;strokeColor=none;" parent="1" vertex="1">
          <mxGeometry width="36" height="24.25" as="geometry" />
        </mxCell>
        <mxCell id="1buuXYzWd8PRPCw0UcvQ-66" value="" style="rounded=0;whiteSpace=wrap;html=1;fillColor=none;strokeColor=none;" parent="1" vertex="1">
          <mxGeometry x="3288" y="2328" width="12" height="11.25" as="geometry" />
        </mxCell>
        <mxCell id="LGjzmEfDbxT8cVo_mgAx-46" style="edgeStyle=orthogonalEdgeStyle;rounded=0;orthogonalLoop=1;jettySize=auto;html=1;exitX=1;exitY=0.5;exitDx=0;exitDy=0;entryX=0.5;entryY=0;entryDx=0;entryDy=0;endArrow=classic;endFill=1;" edge="1" parent="1" source="LGjzmEfDbxT8cVo_mgAx-132" target="LGjzmEfDbxT8cVo_mgAx-45">
          <mxGeometry relative="1" as="geometry">
            <mxPoint x="408" y="198" as="sourcePoint" />
            <Array as="points">
              <mxPoint x="448" y="204" />
              <mxPoint x="448" y="828" />
              <mxPoint x="360" y="828" />
            </Array>
          </mxGeometry>
        </mxCell>
        <mxCell id="LGjzmEfDbxT8cVo_mgAx-12" style="edgeStyle=orthogonalEdgeStyle;rounded=0;orthogonalLoop=1;jettySize=auto;html=1;exitX=0.5;exitY=1;exitDx=0;exitDy=0;entryX=0.5;entryY=0;entryDx=0;entryDy=0;endArrow=none;endFill=0;" edge="1" parent="1" source="LGjzmEfDbxT8cVo_mgAx-3" target="LGjzmEfDbxT8cVo_mgAx-9">
          <mxGeometry relative="1" as="geometry" />
        </mxCell>
        <mxCell id="LGjzmEfDbxT8cVo_mgAx-3" value="Вывод интерфейса програмы" style="rounded=0;whiteSpace=wrap;html=1;" vertex="1" parent="1">
          <mxGeometry x="300" y="264" width="120" height="36" as="geometry" />
        </mxCell>
        <mxCell id="LGjzmEfDbxT8cVo_mgAx-5" value="" style="endArrow=classic;html=1;entryX=0.5;entryY=0;entryDx=0;entryDy=0;" edge="1" parent="1">
          <mxGeometry width="50" height="50" relative="1" as="geometry">
            <mxPoint x="359.86" y="108" as="sourcePoint" />
            <mxPoint x="360" y="168" as="targetPoint" />
          </mxGeometry>
        </mxCell>
        <mxCell id="LGjzmEfDbxT8cVo_mgAx-8" value="" style="endArrow=classic;html=1;entryX=0.5;entryY=0;entryDx=0;entryDy=0;" edge="1" parent="1" target="LGjzmEfDbxT8cVo_mgAx-3">
          <mxGeometry width="50" height="50" relative="1" as="geometry">
            <mxPoint x="359.8" y="228" as="sourcePoint" />
            <mxPoint x="359.8" y="250" as="targetPoint" />
          </mxGeometry>
        </mxCell>
        <mxCell id="LGjzmEfDbxT8cVo_mgAx-22" style="edgeStyle=orthogonalEdgeStyle;rounded=0;orthogonalLoop=1;jettySize=auto;html=1;exitX=0.5;exitY=1;exitDx=0;exitDy=0;endArrow=none;endFill=0;" edge="1" parent="1" source="LGjzmEfDbxT8cVo_mgAx-9">
          <mxGeometry relative="1" as="geometry">
            <mxPoint x="360.20000000000005" y="696" as="targetPoint" />
          </mxGeometry>
        </mxCell>
        <mxCell id="LGjzmEfDbxT8cVo_mgAx-9" value="Switch(n)" style="rhombus;whiteSpace=wrap;html=1;" vertex="1" parent="1">
          <mxGeometry x="320" y="336" width="80" height="80" as="geometry" />
        </mxCell>
        <mxCell id="LGjzmEfDbxT8cVo_mgAx-10" value="Начало" style="ellipse;whiteSpace=wrap;html=1;" vertex="1" parent="1">
          <mxGeometry x="300" y="72" width="120" height="36" as="geometry" />
        </mxCell>
        <mxCell id="LGjzmEfDbxT8cVo_mgAx-29" style="edgeStyle=orthogonalEdgeStyle;rounded=0;orthogonalLoop=1;jettySize=auto;html=1;exitX=0;exitY=0.5;exitDx=0;exitDy=0;entryX=0.097;entryY=0.764;entryDx=0;entryDy=0;endArrow=none;endFill=0;entryPerimeter=0;" edge="1" parent="1" source="LGjzmEfDbxT8cVo_mgAx-13" target="LGjzmEfDbxT8cVo_mgAx-132">
          <mxGeometry relative="1" as="geometry">
            <mxPoint x="300.96000000000004" y="223.6199999999999" as="targetPoint" />
            <Array as="points">
              <mxPoint x="256" y="442" />
              <mxPoint x="256" y="224" />
              <mxPoint x="301" y="224" />
              <mxPoint x="301" y="223" />
            </Array>
          </mxGeometry>
        </mxCell>
        <mxCell id="LGjzmEfDbxT8cVo_mgAx-35" style="edgeStyle=orthogonalEdgeStyle;rounded=0;orthogonalLoop=1;jettySize=auto;html=1;exitX=1;exitY=0.5;exitDx=0;exitDy=0;endArrow=none;endFill=0;" edge="1" parent="1" source="LGjzmEfDbxT8cVo_mgAx-13">
          <mxGeometry relative="1" as="geometry">
            <mxPoint x="360" y="441.8571428571428" as="targetPoint" />
          </mxGeometry>
        </mxCell>
        <mxCell id="LGjzmEfDbxT8cVo_mgAx-13" value="1" style="ellipse;whiteSpace=wrap;html=1;aspect=fixed;" vertex="1" parent="1">
          <mxGeometry x="276" y="420" width="44" height="44" as="geometry" />
        </mxCell>
        <mxCell id="LGjzmEfDbxT8cVo_mgAx-43" style="edgeStyle=orthogonalEdgeStyle;rounded=0;orthogonalLoop=1;jettySize=auto;html=1;exitX=0;exitY=0.5;exitDx=0;exitDy=0;endArrow=none;endFill=0;" edge="1" parent="1" source="LGjzmEfDbxT8cVo_mgAx-14">
          <mxGeometry relative="1" as="geometry">
            <mxPoint x="360" y="441.8571428571428" as="targetPoint" />
          </mxGeometry>
        </mxCell>
        <mxCell id="LGjzmEfDbxT8cVo_mgAx-14" value="2" style="ellipse;whiteSpace=wrap;html=1;aspect=fixed;" vertex="1" parent="1">
          <mxGeometry x="400" y="420" width="44" height="44" as="geometry" />
        </mxCell>
        <mxCell id="LGjzmEfDbxT8cVo_mgAx-30" style="edgeStyle=orthogonalEdgeStyle;rounded=0;orthogonalLoop=1;jettySize=auto;html=1;exitX=0;exitY=0.5;exitDx=0;exitDy=0;entryX=0.053;entryY=0.659;entryDx=0;entryDy=0;endArrow=none;endFill=0;entryPerimeter=0;" edge="1" parent="1" source="LGjzmEfDbxT8cVo_mgAx-15" target="LGjzmEfDbxT8cVo_mgAx-132">
          <mxGeometry relative="1" as="geometry">
            <mxPoint x="305.28" y="216.17999999999995" as="targetPoint" />
            <Array as="points">
              <mxPoint x="240" y="526" />
              <mxPoint x="240" y="216" />
              <mxPoint x="302" y="216" />
            </Array>
          </mxGeometry>
        </mxCell>
        <mxCell id="LGjzmEfDbxT8cVo_mgAx-36" style="edgeStyle=orthogonalEdgeStyle;rounded=0;orthogonalLoop=1;jettySize=auto;html=1;exitX=1;exitY=0.5;exitDx=0;exitDy=0;endArrow=none;endFill=0;" edge="1" parent="1" source="LGjzmEfDbxT8cVo_mgAx-15">
          <mxGeometry relative="1" as="geometry">
            <mxPoint x="360" y="526.1428571428571" as="targetPoint" />
          </mxGeometry>
        </mxCell>
        <mxCell id="LGjzmEfDbxT8cVo_mgAx-15" value="3" style="ellipse;whiteSpace=wrap;html=1;aspect=fixed;" vertex="1" parent="1">
          <mxGeometry x="276" y="504" width="44" height="44" as="geometry" />
        </mxCell>
        <mxCell id="LGjzmEfDbxT8cVo_mgAx-42" style="edgeStyle=orthogonalEdgeStyle;rounded=0;orthogonalLoop=1;jettySize=auto;html=1;exitX=0;exitY=0.5;exitDx=0;exitDy=0;endArrow=none;endFill=0;" edge="1" parent="1" source="LGjzmEfDbxT8cVo_mgAx-16">
          <mxGeometry relative="1" as="geometry">
            <mxPoint x="360" y="526.1428571428571" as="targetPoint" />
          </mxGeometry>
        </mxCell>
        <mxCell id="LGjzmEfDbxT8cVo_mgAx-16" value="4" style="ellipse;whiteSpace=wrap;html=1;aspect=fixed;" vertex="1" parent="1">
          <mxGeometry x="400" y="504" width="44" height="44" as="geometry" />
        </mxCell>
        <mxCell id="LGjzmEfDbxT8cVo_mgAx-31" style="edgeStyle=orthogonalEdgeStyle;rounded=0;orthogonalLoop=1;jettySize=auto;html=1;exitX=0;exitY=0.5;exitDx=0;exitDy=0;entryX=0;entryY=0.75;entryDx=0;entryDy=0;endArrow=none;endFill=0;" edge="1" parent="1" source="LGjzmEfDbxT8cVo_mgAx-17">
          <mxGeometry relative="1" as="geometry">
            <mxPoint x="306.66666666666674" y="211.33333333333337" as="targetPoint" />
            <Array as="points">
              <mxPoint x="228" y="622" />
              <mxPoint x="228" y="211" />
              <mxPoint x="307" y="211" />
            </Array>
          </mxGeometry>
        </mxCell>
        <mxCell id="LGjzmEfDbxT8cVo_mgAx-37" style="edgeStyle=orthogonalEdgeStyle;rounded=0;orthogonalLoop=1;jettySize=auto;html=1;exitX=1;exitY=0.5;exitDx=0;exitDy=0;endArrow=none;endFill=0;" edge="1" parent="1" source="LGjzmEfDbxT8cVo_mgAx-17">
          <mxGeometry relative="1" as="geometry">
            <mxPoint x="360" y="621.8571428571428" as="targetPoint" />
          </mxGeometry>
        </mxCell>
        <mxCell id="LGjzmEfDbxT8cVo_mgAx-17" value="6" style="ellipse;whiteSpace=wrap;html=1;aspect=fixed;" vertex="1" parent="1">
          <mxGeometry x="276" y="600" width="44" height="44" as="geometry" />
        </mxCell>
        <mxCell id="LGjzmEfDbxT8cVo_mgAx-41" style="edgeStyle=orthogonalEdgeStyle;rounded=0;orthogonalLoop=1;jettySize=auto;html=1;exitX=0;exitY=0.5;exitDx=0;exitDy=0;endArrow=none;endFill=0;" edge="1" parent="1" source="LGjzmEfDbxT8cVo_mgAx-18">
          <mxGeometry relative="1" as="geometry">
            <mxPoint x="360" y="598.047619047619" as="targetPoint" />
          </mxGeometry>
        </mxCell>
        <mxCell id="LGjzmEfDbxT8cVo_mgAx-18" value="5" style="ellipse;whiteSpace=wrap;html=1;aspect=fixed;" vertex="1" parent="1">
          <mxGeometry x="400" y="576" width="44" height="44" as="geometry" />
        </mxCell>
        <mxCell id="LGjzmEfDbxT8cVo_mgAx-34" style="edgeStyle=orthogonalEdgeStyle;rounded=0;orthogonalLoop=1;jettySize=auto;html=1;exitX=0;exitY=0.5;exitDx=0;exitDy=0;entryX=0;entryY=0.5;entryDx=0;entryDy=0;endArrow=none;endFill=0;" edge="1" parent="1" source="LGjzmEfDbxT8cVo_mgAx-21">
          <mxGeometry relative="1" as="geometry">
            <mxPoint x="312" y="198" as="targetPoint" />
            <Array as="points">
              <mxPoint x="216" y="694" />
              <mxPoint x="216" y="198" />
            </Array>
          </mxGeometry>
        </mxCell>
        <mxCell id="LGjzmEfDbxT8cVo_mgAx-38" style="edgeStyle=orthogonalEdgeStyle;rounded=0;orthogonalLoop=1;jettySize=auto;html=1;exitX=1;exitY=0.5;exitDx=0;exitDy=0;endArrow=none;endFill=0;" edge="1" parent="1" source="LGjzmEfDbxT8cVo_mgAx-21">
          <mxGeometry relative="1" as="geometry">
            <mxPoint x="360" y="768" as="targetPoint" />
          </mxGeometry>
        </mxCell>
        <mxCell id="LGjzmEfDbxT8cVo_mgAx-21" value="8" style="ellipse;whiteSpace=wrap;html=1;aspect=fixed;" vertex="1" parent="1">
          <mxGeometry x="276" y="672" width="44" height="44" as="geometry" />
        </mxCell>
        <mxCell id="LGjzmEfDbxT8cVo_mgAx-40" style="edgeStyle=orthogonalEdgeStyle;rounded=0;orthogonalLoop=1;jettySize=auto;html=1;exitX=0;exitY=0.5;exitDx=0;exitDy=0;endArrow=none;endFill=0;" edge="1" parent="1" source="LGjzmEfDbxT8cVo_mgAx-32">
          <mxGeometry relative="1" as="geometry">
            <mxPoint x="360" y="681.8571428571429" as="targetPoint" />
          </mxGeometry>
        </mxCell>
        <mxCell id="LGjzmEfDbxT8cVo_mgAx-32" value="7" style="ellipse;whiteSpace=wrap;html=1;aspect=fixed;" vertex="1" parent="1">
          <mxGeometry x="400" y="660" width="44" height="44" as="geometry" />
        </mxCell>
        <mxCell id="LGjzmEfDbxT8cVo_mgAx-39" style="edgeStyle=orthogonalEdgeStyle;rounded=0;orthogonalLoop=1;jettySize=auto;html=1;exitX=0;exitY=0.5;exitDx=0;exitDy=0;endArrow=none;endFill=0;" edge="1" parent="1" source="LGjzmEfDbxT8cVo_mgAx-33">
          <mxGeometry relative="1" as="geometry">
            <mxPoint x="360" y="766.1428571428571" as="targetPoint" />
          </mxGeometry>
        </mxCell>
        <mxCell id="LGjzmEfDbxT8cVo_mgAx-33" value="9" style="ellipse;whiteSpace=wrap;html=1;aspect=fixed;" vertex="1" parent="1">
          <mxGeometry x="400" y="744" width="44" height="44" as="geometry" />
        </mxCell>
        <mxCell id="LGjzmEfDbxT8cVo_mgAx-45" value="Конец" style="rounded=0;whiteSpace=wrap;html=1;" vertex="1" parent="1">
          <mxGeometry x="300" y="852" width="120" height="60" as="geometry" />
        </mxCell>
        <mxCell id="LGjzmEfDbxT8cVo_mgAx-48" value="struct Node* head;" style="shape=process;whiteSpace=wrap;html=1;backgroundOutline=1;" vertex="1" parent="1">
          <mxGeometry x="84" y="36" width="72" height="48" as="geometry" />
        </mxCell>
        <mxCell id="LGjzmEfDbxT8cVo_mgAx-54" style="edgeStyle=orthogonalEdgeStyle;rounded=0;orthogonalLoop=1;jettySize=auto;html=1;exitX=1;exitY=0.5;exitDx=0;exitDy=0;endArrow=none;endFill=0;" edge="1" parent="1" source="LGjzmEfDbxT8cVo_mgAx-49" target="LGjzmEfDbxT8cVo_mgAx-50">
          <mxGeometry relative="1" as="geometry" />
        </mxCell>
        <mxCell id="LGjzmEfDbxT8cVo_mgAx-49" value="Struct Node" style="shape=process;whiteSpace=wrap;html=1;backgroundOutline=1;" vertex="1" parent="1">
          <mxGeometry x="456" y="60" width="120" height="60" as="geometry" />
        </mxCell>
        <mxCell id="LGjzmEfDbxT8cVo_mgAx-55" style="edgeStyle=orthogonalEdgeStyle;rounded=0;orthogonalLoop=1;jettySize=auto;html=1;exitX=1;exitY=0.5;exitDx=0;exitDy=0;endArrow=none;endFill=0;" edge="1" parent="1" source="LGjzmEfDbxT8cVo_mgAx-50" target="LGjzmEfDbxT8cVo_mgAx-52">
          <mxGeometry relative="1" as="geometry" />
        </mxCell>
        <mxCell id="LGjzmEfDbxT8cVo_mgAx-50" value="Инициализация данных" style="rounded=0;whiteSpace=wrap;html=1;" vertex="1" parent="1">
          <mxGeometry x="612" y="60" width="120" height="60" as="geometry" />
        </mxCell>
        <mxCell id="LGjzmEfDbxT8cVo_mgAx-52" value="&lt;div&gt;struct Node* next;&lt;/div&gt;&lt;div&gt;&lt;span&gt;	&lt;/span&gt;struct Node* prev;&lt;/div&gt;" style="rounded=0;whiteSpace=wrap;html=1;" vertex="1" parent="1">
          <mxGeometry x="756" y="60" width="120" height="60" as="geometry" />
        </mxCell>
        <mxCell id="LGjzmEfDbxT8cVo_mgAx-63" style="edgeStyle=orthogonalEdgeStyle;rounded=0;orthogonalLoop=1;jettySize=auto;html=1;exitX=1;exitY=0.5;exitDx=0;exitDy=0;entryX=0;entryY=0.5;entryDx=0;entryDy=0;endArrow=none;endFill=0;" edge="1" parent="1" source="LGjzmEfDbxT8cVo_mgAx-61" target="LGjzmEfDbxT8cVo_mgAx-62">
          <mxGeometry relative="1" as="geometry" />
        </mxCell>
        <mxCell id="LGjzmEfDbxT8cVo_mgAx-61" value="struct Node* GetNewNode()" style="shape=process;whiteSpace=wrap;html=1;backgroundOutline=1;" vertex="1" parent="1">
          <mxGeometry x="456" y="132" width="120" height="60" as="geometry" />
        </mxCell>
        <mxCell id="LGjzmEfDbxT8cVo_mgAx-65" style="edgeStyle=orthogonalEdgeStyle;rounded=0;orthogonalLoop=1;jettySize=auto;html=1;exitX=1;exitY=0.5;exitDx=0;exitDy=0;entryX=0;entryY=0.5;entryDx=0;entryDy=0;endArrow=none;endFill=0;" edge="1" parent="1" source="LGjzmEfDbxT8cVo_mgAx-62" target="LGjzmEfDbxT8cVo_mgAx-64">
          <mxGeometry relative="1" as="geometry" />
        </mxCell>
        <mxCell id="LGjzmEfDbxT8cVo_mgAx-62" value="&lt;div&gt;&amp;nbsp;newNode&lt;span&gt;= (struct Node*)malloc(sizeof(struct Node));&lt;/span&gt;&lt;/div&gt;" style="rounded=0;whiteSpace=wrap;html=1;" vertex="1" parent="1">
          <mxGeometry x="612" y="132" width="192" height="60" as="geometry" />
        </mxCell>
        <mxCell id="LGjzmEfDbxT8cVo_mgAx-67" style="edgeStyle=orthogonalEdgeStyle;rounded=0;orthogonalLoop=1;jettySize=auto;html=1;exitX=1;exitY=0.5;exitDx=0;exitDy=0;entryX=0;entryY=0.5;entryDx=0;entryDy=0;endArrow=none;endFill=0;" edge="1" parent="1" source="LGjzmEfDbxT8cVo_mgAx-64">
          <mxGeometry relative="1" as="geometry">
            <mxPoint x="960" y="162" as="targetPoint" />
          </mxGeometry>
        </mxCell>
        <mxCell id="LGjzmEfDbxT8cVo_mgAx-64" value="newNode-&gt;prev = NULL;&#xa;	newNode-&gt;next = NULL;" style="rounded=0;whiteSpace=wrap;html=1;" vertex="1" parent="1">
          <mxGeometry x="816" y="132" width="120" height="60" as="geometry" />
        </mxCell>
        <mxCell id="LGjzmEfDbxT8cVo_mgAx-68" value="return&amp;nbsp;&lt;br&gt;newNode" style="ellipse;whiteSpace=wrap;html=1;aspect=fixed;" vertex="1" parent="1">
          <mxGeometry x="960" y="122" width="80" height="80" as="geometry" />
        </mxCell>
        <mxCell id="LGjzmEfDbxT8cVo_mgAx-71" style="edgeStyle=orthogonalEdgeStyle;rounded=0;orthogonalLoop=1;jettySize=auto;html=1;exitX=0.5;exitY=1;exitDx=0;exitDy=0;entryX=0.5;entryY=0;entryDx=0;entryDy=0;endArrow=classic;endFill=1;" edge="1" parent="1" source="LGjzmEfDbxT8cVo_mgAx-69" target="LGjzmEfDbxT8cVo_mgAx-70">
          <mxGeometry relative="1" as="geometry" />
        </mxCell>
        <mxCell id="LGjzmEfDbxT8cVo_mgAx-69" value="1" style="ellipse;whiteSpace=wrap;html=1;aspect=fixed;" vertex="1" parent="1">
          <mxGeometry x="492" y="242" width="80" height="80" as="geometry" />
        </mxCell>
        <mxCell id="LGjzmEfDbxT8cVo_mgAx-73" style="edgeStyle=orthogonalEdgeStyle;rounded=0;orthogonalLoop=1;jettySize=auto;html=1;exitX=0.5;exitY=1;exitDx=0;exitDy=0;entryX=0.5;entryY=0;entryDx=0;entryDy=0;endArrow=classic;endFill=1;" edge="1" parent="1" source="LGjzmEfDbxT8cVo_mgAx-70" target="LGjzmEfDbxT8cVo_mgAx-72">
          <mxGeometry relative="1" as="geometry" />
        </mxCell>
        <mxCell id="LGjzmEfDbxT8cVo_mgAx-70" value="struct Node* newNode = GetNewNode();" style="rounded=0;whiteSpace=wrap;html=1;" vertex="1" parent="1">
          <mxGeometry x="472" y="336" width="120" height="60" as="geometry" />
        </mxCell>
        <mxCell id="LGjzmEfDbxT8cVo_mgAx-75" style="edgeStyle=orthogonalEdgeStyle;rounded=0;orthogonalLoop=1;jettySize=auto;html=1;exitX=0.5;exitY=1;exitDx=0;exitDy=0;entryX=0.5;entryY=0;entryDx=0;entryDy=0;endArrow=classic;endFill=1;" edge="1" parent="1" source="LGjzmEfDbxT8cVo_mgAx-72" target="LGjzmEfDbxT8cVo_mgAx-74">
          <mxGeometry relative="1" as="geometry" />
        </mxCell>
        <mxCell id="LGjzmEfDbxT8cVo_mgAx-72" value="Введите имя нового ювелирного изделия:&amp;nbsp;" style="rounded=1;whiteSpace=wrap;html=1;" vertex="1" parent="1">
          <mxGeometry x="473" y="409" width="120" height="60" as="geometry" />
        </mxCell>
        <mxCell id="LGjzmEfDbxT8cVo_mgAx-100" style="edgeStyle=orthogonalEdgeStyle;rounded=0;orthogonalLoop=1;jettySize=auto;html=1;exitX=0.5;exitY=1;exitDx=0;exitDy=0;entryX=0.5;entryY=0;entryDx=0;entryDy=0;endArrow=classic;endFill=1;" edge="1" parent="1" source="LGjzmEfDbxT8cVo_mgAx-74" target="LGjzmEfDbxT8cVo_mgAx-77">
          <mxGeometry relative="1" as="geometry" />
        </mxCell>
        <mxCell id="LGjzmEfDbxT8cVo_mgAx-74" value="scanf(&quot;%s&quot;,newNode-&amp;gt;jewelry_name);" style="rounded=0;whiteSpace=wrap;html=1;" vertex="1" parent="1">
          <mxGeometry x="472" y="480" width="120" height="60" as="geometry" />
        </mxCell>
        <mxCell id="LGjzmEfDbxT8cVo_mgAx-76" style="edgeStyle=orthogonalEdgeStyle;rounded=0;orthogonalLoop=1;jettySize=auto;html=1;exitX=0.5;exitY=1;exitDx=0;exitDy=0;entryX=0.5;entryY=0;entryDx=0;entryDy=0;endArrow=classic;endFill=1;" edge="1" source="LGjzmEfDbxT8cVo_mgAx-77" target="LGjzmEfDbxT8cVo_mgAx-78" parent="1">
          <mxGeometry relative="1" as="geometry" />
        </mxCell>
        <mxCell id="LGjzmEfDbxT8cVo_mgAx-77" value="Введите тип камня:" style="rounded=1;whiteSpace=wrap;html=1;" vertex="1" parent="1">
          <mxGeometry x="472" y="554" width="120" height="60" as="geometry" />
        </mxCell>
        <mxCell id="LGjzmEfDbxT8cVo_mgAx-101" style="edgeStyle=orthogonalEdgeStyle;rounded=0;orthogonalLoop=1;jettySize=auto;html=1;exitX=0.5;exitY=1;exitDx=0;exitDy=0;entryX=0.5;entryY=0;entryDx=0;entryDy=0;endArrow=classic;endFill=1;" edge="1" parent="1" source="LGjzmEfDbxT8cVo_mgAx-78" target="LGjzmEfDbxT8cVo_mgAx-80">
          <mxGeometry relative="1" as="geometry" />
        </mxCell>
        <mxCell id="LGjzmEfDbxT8cVo_mgAx-78" value="scanf(&quot;%s&quot;,newNode-&amp;gt;jewelry_stone_type);" style="rounded=0;whiteSpace=wrap;html=1;" vertex="1" parent="1">
          <mxGeometry x="472" y="630" width="120" height="60" as="geometry" />
        </mxCell>
        <mxCell id="LGjzmEfDbxT8cVo_mgAx-79" style="edgeStyle=orthogonalEdgeStyle;rounded=0;orthogonalLoop=1;jettySize=auto;html=1;exitX=0.5;exitY=1;exitDx=0;exitDy=0;entryX=0.5;entryY=0;entryDx=0;entryDy=0;endArrow=classic;endFill=1;" edge="1" source="LGjzmEfDbxT8cVo_mgAx-80" target="LGjzmEfDbxT8cVo_mgAx-81" parent="1">
          <mxGeometry relative="1" as="geometry" />
        </mxCell>
        <mxCell id="LGjzmEfDbxT8cVo_mgAx-80" value="Введите вес камня:&amp;nbsp;" style="rounded=1;whiteSpace=wrap;html=1;" vertex="1" parent="1">
          <mxGeometry x="472" y="704" width="120" height="60" as="geometry" />
        </mxCell>
        <mxCell id="LGjzmEfDbxT8cVo_mgAx-102" style="edgeStyle=orthogonalEdgeStyle;rounded=0;orthogonalLoop=1;jettySize=auto;html=1;exitX=0.5;exitY=1;exitDx=0;exitDy=0;entryX=0.5;entryY=0;entryDx=0;entryDy=0;endArrow=classic;endFill=1;" edge="1" parent="1" source="LGjzmEfDbxT8cVo_mgAx-81" target="LGjzmEfDbxT8cVo_mgAx-83">
          <mxGeometry relative="1" as="geometry" />
        </mxCell>
        <mxCell id="LGjzmEfDbxT8cVo_mgAx-81" value="scanf(&quot;%f&quot;,&amp;amp;newNode-&amp;gt;jewelry_stone_weight" style="rounded=0;whiteSpace=wrap;html=1;" vertex="1" parent="1">
          <mxGeometry x="472" y="780" width="120" height="60" as="geometry" />
        </mxCell>
        <mxCell id="LGjzmEfDbxT8cVo_mgAx-82" style="edgeStyle=orthogonalEdgeStyle;rounded=0;orthogonalLoop=1;jettySize=auto;html=1;exitX=0.5;exitY=1;exitDx=0;exitDy=0;entryX=0.5;entryY=0;entryDx=0;entryDy=0;endArrow=classic;endFill=1;" edge="1" source="LGjzmEfDbxT8cVo_mgAx-83" target="LGjzmEfDbxT8cVo_mgAx-84" parent="1">
          <mxGeometry relative="1" as="geometry" />
        </mxCell>
        <mxCell id="LGjzmEfDbxT8cVo_mgAx-83" value="Введите кол-во камней:&amp;nbsp;" style="rounded=1;whiteSpace=wrap;html=1;" vertex="1" parent="1">
          <mxGeometry x="472" y="852" width="120" height="60" as="geometry" />
        </mxCell>
        <mxCell id="LGjzmEfDbxT8cVo_mgAx-104" style="edgeStyle=orthogonalEdgeStyle;rounded=0;orthogonalLoop=1;jettySize=auto;html=1;exitX=0.5;exitY=1;exitDx=0;exitDy=0;entryX=0.5;entryY=0;entryDx=0;entryDy=0;endArrow=classic;endFill=1;" edge="1" parent="1" source="LGjzmEfDbxT8cVo_mgAx-84" target="LGjzmEfDbxT8cVo_mgAx-86">
          <mxGeometry relative="1" as="geometry" />
        </mxCell>
        <mxCell id="LGjzmEfDbxT8cVo_mgAx-84" value="scanf(&quot;%d&quot;,&amp;amp;newNode-&amp;gt;jewelry_stone_count" style="rounded=0;whiteSpace=wrap;html=1;" vertex="1" parent="1">
          <mxGeometry x="472" y="928" width="120" height="60" as="geometry" />
        </mxCell>
        <mxCell id="LGjzmEfDbxT8cVo_mgAx-85" style="edgeStyle=orthogonalEdgeStyle;rounded=0;orthogonalLoop=1;jettySize=auto;html=1;exitX=0.5;exitY=1;exitDx=0;exitDy=0;entryX=0.5;entryY=0;entryDx=0;entryDy=0;endArrow=classic;endFill=1;" edge="1" source="LGjzmEfDbxT8cVo_mgAx-86" target="LGjzmEfDbxT8cVo_mgAx-87" parent="1">
          <mxGeometry relative="1" as="geometry" />
        </mxCell>
        <mxCell id="LGjzmEfDbxT8cVo_mgAx-86" value="Введите название камня:" style="rounded=1;whiteSpace=wrap;html=1;" vertex="1" parent="1">
          <mxGeometry x="472" y="1008" width="120" height="60" as="geometry" />
        </mxCell>
        <mxCell id="LGjzmEfDbxT8cVo_mgAx-105" style="edgeStyle=orthogonalEdgeStyle;rounded=0;orthogonalLoop=1;jettySize=auto;html=1;exitX=0.5;exitY=1;exitDx=0;exitDy=0;entryX=0.5;entryY=0;entryDx=0;entryDy=0;endArrow=classic;endFill=1;" edge="1" parent="1" source="LGjzmEfDbxT8cVo_mgAx-87" target="LGjzmEfDbxT8cVo_mgAx-89">
          <mxGeometry relative="1" as="geometry" />
        </mxCell>
        <mxCell id="LGjzmEfDbxT8cVo_mgAx-87" value="%s&quot;,newNode-&amp;gt;jewelry_stone_name" style="rounded=0;whiteSpace=wrap;html=1;" vertex="1" parent="1">
          <mxGeometry x="472" y="1084" width="120" height="60" as="geometry" />
        </mxCell>
        <mxCell id="LGjzmEfDbxT8cVo_mgAx-88" style="edgeStyle=orthogonalEdgeStyle;rounded=0;orthogonalLoop=1;jettySize=auto;html=1;exitX=0.5;exitY=1;exitDx=0;exitDy=0;entryX=0.5;entryY=0;entryDx=0;entryDy=0;endArrow=classic;endFill=1;" edge="1" source="LGjzmEfDbxT8cVo_mgAx-89" target="LGjzmEfDbxT8cVo_mgAx-90" parent="1">
          <mxGeometry relative="1" as="geometry" />
        </mxCell>
        <mxCell id="LGjzmEfDbxT8cVo_mgAx-89" value="Введите вес в карат:" style="rounded=1;whiteSpace=wrap;html=1;" vertex="1" parent="1">
          <mxGeometry x="472" y="1164" width="120" height="60" as="geometry" />
        </mxCell>
        <mxCell id="LGjzmEfDbxT8cVo_mgAx-106" style="edgeStyle=orthogonalEdgeStyle;rounded=0;orthogonalLoop=1;jettySize=auto;html=1;exitX=0.5;exitY=1;exitDx=0;exitDy=0;entryX=0.5;entryY=0;entryDx=0;entryDy=0;endArrow=classic;endFill=1;" edge="1" parent="1" source="LGjzmEfDbxT8cVo_mgAx-90" target="LGjzmEfDbxT8cVo_mgAx-92">
          <mxGeometry relative="1" as="geometry" />
        </mxCell>
        <mxCell id="LGjzmEfDbxT8cVo_mgAx-90" value="&quot;%f&quot;,&amp;amp;newNode-&amp;gt;jewelry_karat_weight" style="rounded=0;whiteSpace=wrap;html=1;" vertex="1" parent="1">
          <mxGeometry x="472" y="1240" width="120" height="60" as="geometry" />
        </mxCell>
        <mxCell id="LGjzmEfDbxT8cVo_mgAx-91" style="edgeStyle=orthogonalEdgeStyle;rounded=0;orthogonalLoop=1;jettySize=auto;html=1;exitX=0.5;exitY=1;exitDx=0;exitDy=0;entryX=0.5;entryY=0;entryDx=0;entryDy=0;endArrow=classic;endFill=1;" edge="1" source="LGjzmEfDbxT8cVo_mgAx-92" target="LGjzmEfDbxT8cVo_mgAx-93" parent="1">
          <mxGeometry relative="1" as="geometry" />
        </mxCell>
        <mxCell id="LGjzmEfDbxT8cVo_mgAx-92" value="Введите стоимость изделия:" style="rounded=1;whiteSpace=wrap;html=1;" vertex="1" parent="1">
          <mxGeometry x="472" y="1320" width="120" height="60" as="geometry" />
        </mxCell>
        <mxCell id="LGjzmEfDbxT8cVo_mgAx-107" style="edgeStyle=orthogonalEdgeStyle;rounded=0;orthogonalLoop=1;jettySize=auto;html=1;exitX=0.5;exitY=1;exitDx=0;exitDy=0;entryX=0.5;entryY=0;entryDx=0;entryDy=0;endArrow=classic;endFill=1;" edge="1" parent="1" source="LGjzmEfDbxT8cVo_mgAx-93" target="LGjzmEfDbxT8cVo_mgAx-95">
          <mxGeometry relative="1" as="geometry" />
        </mxCell>
        <mxCell id="LGjzmEfDbxT8cVo_mgAx-93" value="&quot;%f&quot;,&amp;amp;newNode-&amp;gt;jewelry_cost" style="rounded=0;whiteSpace=wrap;html=1;" vertex="1" parent="1">
          <mxGeometry x="472" y="1396" width="120" height="60" as="geometry" />
        </mxCell>
        <mxCell id="LGjzmEfDbxT8cVo_mgAx-94" style="edgeStyle=orthogonalEdgeStyle;rounded=0;orthogonalLoop=1;jettySize=auto;html=1;exitX=0.5;exitY=1;exitDx=0;exitDy=0;entryX=0.5;entryY=0;entryDx=0;entryDy=0;endArrow=classic;endFill=1;" edge="1" source="LGjzmEfDbxT8cVo_mgAx-95" target="LGjzmEfDbxT8cVo_mgAx-96" parent="1">
          <mxGeometry relative="1" as="geometry" />
        </mxCell>
        <mxCell id="LGjzmEfDbxT8cVo_mgAx-95" value="Введите дату поступления в магазин:" style="rounded=1;whiteSpace=wrap;html=1;" vertex="1" parent="1">
          <mxGeometry x="472" y="1476" width="120" height="60" as="geometry" />
        </mxCell>
        <mxCell id="LGjzmEfDbxT8cVo_mgAx-112" style="edgeStyle=orthogonalEdgeStyle;rounded=0;orthogonalLoop=1;jettySize=auto;html=1;exitX=0.5;exitY=1;exitDx=0;exitDy=0;entryX=0.5;entryY=0;entryDx=0;entryDy=0;endArrow=classic;endFill=1;" edge="1" parent="1" source="LGjzmEfDbxT8cVo_mgAx-96" target="LGjzmEfDbxT8cVo_mgAx-111">
          <mxGeometry relative="1" as="geometry" />
        </mxCell>
        <mxCell id="LGjzmEfDbxT8cVo_mgAx-96" value="%s&quot;,newNode-&amp;gt;jewelry_arive_date" style="rounded=0;whiteSpace=wrap;html=1;" vertex="1" parent="1">
          <mxGeometry x="472" y="1552" width="120" height="60" as="geometry" />
        </mxCell>
        <mxCell id="LGjzmEfDbxT8cVo_mgAx-115" style="edgeStyle=orthogonalEdgeStyle;rounded=0;orthogonalLoop=1;jettySize=auto;html=1;exitX=0.5;exitY=1;exitDx=0;exitDy=0;entryX=0.5;entryY=0;entryDx=0;entryDy=0;endArrow=classic;endFill=1;" edge="1" parent="1" source="LGjzmEfDbxT8cVo_mgAx-111" target="LGjzmEfDbxT8cVo_mgAx-113">
          <mxGeometry relative="1" as="geometry" />
        </mxCell>
        <mxCell id="LGjzmEfDbxT8cVo_mgAx-126" style="edgeStyle=orthogonalEdgeStyle;rounded=0;orthogonalLoop=1;jettySize=auto;html=1;exitX=0;exitY=0.5;exitDx=0;exitDy=0;entryX=0;entryY=0.5;entryDx=0;entryDy=0;endArrow=classic;endFill=1;" edge="1" parent="1" source="LGjzmEfDbxT8cVo_mgAx-111" target="LGjzmEfDbxT8cVo_mgAx-122">
          <mxGeometry relative="1" as="geometry">
            <Array as="points">
              <mxPoint x="420" y="1684" />
              <mxPoint x="420" y="1962" />
            </Array>
          </mxGeometry>
        </mxCell>
        <mxCell id="LGjzmEfDbxT8cVo_mgAx-111" value="head == NULL" style="rhombus;whiteSpace=wrap;html=1;" vertex="1" parent="1">
          <mxGeometry x="492" y="1644" width="80" height="80" as="geometry" />
        </mxCell>
        <mxCell id="LGjzmEfDbxT8cVo_mgAx-118" style="edgeStyle=orthogonalEdgeStyle;rounded=0;orthogonalLoop=1;jettySize=auto;html=1;exitX=0.5;exitY=1;exitDx=0;exitDy=0;entryX=0.5;entryY=0;entryDx=0;entryDy=0;endArrow=classic;endFill=1;" edge="1" parent="1" source="LGjzmEfDbxT8cVo_mgAx-113" target="LGjzmEfDbxT8cVo_mgAx-117">
          <mxGeometry relative="1" as="geometry" />
        </mxCell>
        <mxCell id="LGjzmEfDbxT8cVo_mgAx-113" value="head = newNode;" style="rounded=0;whiteSpace=wrap;html=1;" vertex="1" parent="1">
          <mxGeometry x="472" y="1747" width="120" height="60" as="geometry" />
        </mxCell>
        <mxCell id="LGjzmEfDbxT8cVo_mgAx-116" value="+++" style="text;html=1;align=center;verticalAlign=middle;resizable=0;points=[];autosize=1;strokeColor=none;" vertex="1" parent="1">
          <mxGeometry x="540" y="1724" width="36" height="24" as="geometry" />
        </mxCell>
        <mxCell id="LGjzmEfDbxT8cVo_mgAx-117" value="return" style="ellipse;whiteSpace=wrap;html=1;aspect=fixed;" vertex="1" parent="1">
          <mxGeometry x="492" y="1848" width="80" height="80" as="geometry" />
        </mxCell>
        <mxCell id="LGjzmEfDbxT8cVo_mgAx-127" style="edgeStyle=orthogonalEdgeStyle;rounded=0;orthogonalLoop=1;jettySize=auto;html=1;exitX=0.5;exitY=1;exitDx=0;exitDy=0;entryX=0.5;entryY=0;entryDx=0;entryDy=0;endArrow=classic;endFill=1;" edge="1" parent="1" source="LGjzmEfDbxT8cVo_mgAx-122" target="LGjzmEfDbxT8cVo_mgAx-123">
          <mxGeometry relative="1" as="geometry" />
        </mxCell>
        <mxCell id="LGjzmEfDbxT8cVo_mgAx-122" value="head-&amp;gt;prev = newNode;" style="rounded=0;whiteSpace=wrap;html=1;" vertex="1" parent="1">
          <mxGeometry x="473" y="1944" width="120" height="36" as="geometry" />
        </mxCell>
        <mxCell id="LGjzmEfDbxT8cVo_mgAx-128" style="edgeStyle=orthogonalEdgeStyle;rounded=0;orthogonalLoop=1;jettySize=auto;html=1;exitX=0.5;exitY=1;exitDx=0;exitDy=0;entryX=0.5;entryY=0;entryDx=0;entryDy=0;endArrow=classic;endFill=1;" edge="1" parent="1" source="LGjzmEfDbxT8cVo_mgAx-123" target="LGjzmEfDbxT8cVo_mgAx-124">
          <mxGeometry relative="1" as="geometry" />
        </mxCell>
        <mxCell id="LGjzmEfDbxT8cVo_mgAx-123" value="newNode-&amp;gt;next = head;" style="rounded=0;whiteSpace=wrap;html=1;" vertex="1" parent="1">
          <mxGeometry x="473" y="2004" width="120" height="36" as="geometry" />
        </mxCell>
        <mxCell id="LGjzmEfDbxT8cVo_mgAx-124" value="head = newNode;" style="rounded=0;whiteSpace=wrap;html=1;" vertex="1" parent="1">
          <mxGeometry x="473" y="2064" width="120" height="36" as="geometry" />
        </mxCell>
        <mxCell id="LGjzmEfDbxT8cVo_mgAx-133" style="edgeStyle=orthogonalEdgeStyle;rounded=0;orthogonalLoop=1;jettySize=auto;html=1;exitX=0.5;exitY=1;exitDx=0;exitDy=0;endArrow=classic;endFill=1;entryX=0.5;entryY=0;entryDx=0;entryDy=0;" edge="1" parent="1" source="LGjzmEfDbxT8cVo_mgAx-129" target="LGjzmEfDbxT8cVo_mgAx-135">
          <mxGeometry relative="1" as="geometry">
            <mxPoint x="172" y="842" as="targetPoint" />
          </mxGeometry>
        </mxCell>
        <mxCell id="LGjzmEfDbxT8cVo_mgAx-129" value="2" style="ellipse;whiteSpace=wrap;html=1;aspect=fixed;" vertex="1" parent="1">
          <mxGeometry x="132" y="726" width="80" height="80" as="geometry" />
        </mxCell>
        <mxCell id="LGjzmEfDbxT8cVo_mgAx-132" value="&lt;span&gt;do while&amp;nbsp;n != 0&lt;/span&gt;" style="shape=hexagon;perimeter=hexagonPerimeter2;whiteSpace=wrap;html=1;fixedSize=1;" vertex="1" parent="1">
          <mxGeometry x="300" y="168" width="120" height="72" as="geometry" />
        </mxCell>
        <mxCell id="LGjzmEfDbxT8cVo_mgAx-137" style="edgeStyle=orthogonalEdgeStyle;rounded=0;orthogonalLoop=1;jettySize=auto;html=1;exitX=0.5;exitY=1;exitDx=0;exitDy=0;entryX=0.5;entryY=0;entryDx=0;entryDy=0;endArrow=classic;endFill=1;" edge="1" parent="1" source="LGjzmEfDbxT8cVo_mgAx-135" target="LGjzmEfDbxT8cVo_mgAx-136">
          <mxGeometry relative="1" as="geometry" />
        </mxCell>
        <mxCell id="LGjzmEfDbxT8cVo_mgAx-135" value="struct Node* temp;" style="rounded=0;whiteSpace=wrap;html=1;" vertex="1" parent="1">
          <mxGeometry x="112" y="852" width="120" height="60" as="geometry" />
        </mxCell>
        <mxCell id="LGjzmEfDbxT8cVo_mgAx-140" style="edgeStyle=orthogonalEdgeStyle;rounded=0;orthogonalLoop=1;jettySize=auto;html=1;exitX=0.5;exitY=1;exitDx=0;exitDy=0;entryX=0.5;entryY=0;entryDx=0;entryDy=0;endArrow=classic;endFill=1;" edge="1" parent="1" source="LGjzmEfDbxT8cVo_mgAx-136" target="LGjzmEfDbxT8cVo_mgAx-139">
          <mxGeometry relative="1" as="geometry" />
        </mxCell>
        <mxCell id="LGjzmEfDbxT8cVo_mgAx-147" style="edgeStyle=orthogonalEdgeStyle;rounded=0;orthogonalLoop=1;jettySize=auto;html=1;exitX=1;exitY=0.5;exitDx=0;exitDy=0;entryX=0.5;entryY=0;entryDx=0;entryDy=0;endArrow=classic;endFill=1;" edge="1" parent="1" source="LGjzmEfDbxT8cVo_mgAx-136" target="LGjzmEfDbxT8cVo_mgAx-142">
          <mxGeometry relative="1" as="geometry">
            <Array as="points">
              <mxPoint x="264" y="976" />
              <mxPoint x="264" y="1116" />
              <mxPoint x="172" y="1116" />
            </Array>
          </mxGeometry>
        </mxCell>
        <mxCell id="LGjzmEfDbxT8cVo_mgAx-136" value="head == NULL" style="rhombus;whiteSpace=wrap;html=1;" vertex="1" parent="1">
          <mxGeometry x="132" y="936" width="80" height="80" as="geometry" />
        </mxCell>
        <mxCell id="LGjzmEfDbxT8cVo_mgAx-139" value="List is empty" style="rounded=1;whiteSpace=wrap;html=1;" vertex="1" parent="1">
          <mxGeometry x="112" y="1032" width="120" height="60" as="geometry" />
        </mxCell>
        <mxCell id="LGjzmEfDbxT8cVo_mgAx-141" value="+++++" style="text;html=1;align=center;verticalAlign=middle;resizable=0;points=[];autosize=1;strokeColor=none;" vertex="1" parent="1">
          <mxGeometry x="172" y="1014" width="48" height="24" as="geometry" />
        </mxCell>
        <mxCell id="LGjzmEfDbxT8cVo_mgAx-146" style="edgeStyle=orthogonalEdgeStyle;rounded=0;orthogonalLoop=1;jettySize=auto;html=1;exitX=0.5;exitY=1;exitDx=0;exitDy=0;entryX=0.5;entryY=0;entryDx=0;entryDy=0;endArrow=classic;endFill=1;" edge="1" parent="1" source="LGjzmEfDbxT8cVo_mgAx-142" target="LGjzmEfDbxT8cVo_mgAx-145">
          <mxGeometry relative="1" as="geometry" />
        </mxCell>
        <mxCell id="LGjzmEfDbxT8cVo_mgAx-142" value="temp = head;" style="rounded=0;whiteSpace=wrap;html=1;" vertex="1" parent="1">
          <mxGeometry x="112" y="1128" width="120" height="60" as="geometry" />
        </mxCell>
        <mxCell id="LGjzmEfDbxT8cVo_mgAx-144" value="----" style="text;html=1;align=center;verticalAlign=middle;resizable=0;points=[];autosize=1;strokeColor=none;" vertex="1" parent="1">
          <mxGeometry x="213" y="952" width="36" height="24" as="geometry" />
        </mxCell>
        <mxCell id="LGjzmEfDbxT8cVo_mgAx-149" style="edgeStyle=orthogonalEdgeStyle;rounded=0;orthogonalLoop=1;jettySize=auto;html=1;exitX=0.5;exitY=1;exitDx=0;exitDy=0;entryX=0.5;entryY=0;entryDx=0;entryDy=0;endArrow=classic;endFill=1;" edge="1" parent="1" source="LGjzmEfDbxT8cVo_mgAx-145" target="LGjzmEfDbxT8cVo_mgAx-148">
          <mxGeometry relative="1" as="geometry" />
        </mxCell>
        <mxCell id="LGjzmEfDbxT8cVo_mgAx-154" style="edgeStyle=orthogonalEdgeStyle;rounded=0;orthogonalLoop=1;jettySize=auto;html=1;exitX=1;exitY=0.5;exitDx=0;exitDy=0;entryX=0.5;entryY=0;entryDx=0;entryDy=0;endArrow=classic;endFill=1;" edge="1" parent="1" source="LGjzmEfDbxT8cVo_mgAx-145" target="LGjzmEfDbxT8cVo_mgAx-153">
          <mxGeometry relative="1" as="geometry">
            <Array as="points">
              <mxPoint x="252" y="1270" />
              <mxPoint x="252" y="1428" />
              <mxPoint x="173" y="1428" />
            </Array>
          </mxGeometry>
        </mxCell>
        <mxCell id="LGjzmEfDbxT8cVo_mgAx-145" value="temp-&amp;gt;next != NULL" style="shape=hexagon;perimeter=hexagonPerimeter2;whiteSpace=wrap;html=1;fixedSize=1;" vertex="1" parent="1">
          <mxGeometry x="112" y="1230" width="120" height="80" as="geometry" />
        </mxCell>
        <mxCell id="LGjzmEfDbxT8cVo_mgAx-150" style="edgeStyle=orthogonalEdgeStyle;rounded=0;orthogonalLoop=1;jettySize=auto;html=1;exitX=0;exitY=0.5;exitDx=0;exitDy=0;entryX=0;entryY=0.5;entryDx=0;entryDy=0;endArrow=classic;endFill=1;" edge="1" parent="1" source="LGjzmEfDbxT8cVo_mgAx-148" target="LGjzmEfDbxT8cVo_mgAx-145">
          <mxGeometry relative="1" as="geometry" />
        </mxCell>
        <mxCell id="LGjzmEfDbxT8cVo_mgAx-148" value="temp = temp-&amp;gt;next;" style="rounded=0;whiteSpace=wrap;html=1;" vertex="1" parent="1">
          <mxGeometry x="112" y="1336" width="120" height="60" as="geometry" />
        </mxCell>
        <mxCell id="LGjzmEfDbxT8cVo_mgAx-156" style="edgeStyle=orthogonalEdgeStyle;rounded=0;orthogonalLoop=1;jettySize=auto;html=1;exitX=0.5;exitY=1;exitDx=0;exitDy=0;entryX=0.5;entryY=0;entryDx=0;entryDy=0;endArrow=classic;endFill=1;" edge="1" parent="1" source="LGjzmEfDbxT8cVo_mgAx-153" target="LGjzmEfDbxT8cVo_mgAx-155">
          <mxGeometry relative="1" as="geometry" />
        </mxCell>
        <mxCell id="LGjzmEfDbxT8cVo_mgAx-159" style="edgeStyle=orthogonalEdgeStyle;rounded=0;orthogonalLoop=1;jettySize=auto;html=1;exitX=1;exitY=0.5;exitDx=0;exitDy=0;entryX=0;entryY=0.5;entryDx=0;entryDy=0;endArrow=classic;endFill=1;" edge="1" parent="1" source="LGjzmEfDbxT8cVo_mgAx-153" target="LGjzmEfDbxT8cVo_mgAx-158">
          <mxGeometry relative="1" as="geometry" />
        </mxCell>
        <mxCell id="LGjzmEfDbxT8cVo_mgAx-153" value="head-&amp;gt;next == NULL" style="rhombus;whiteSpace=wrap;html=1;" vertex="1" parent="1">
          <mxGeometry x="113" y="1456" width="119" height="80" as="geometry" />
        </mxCell>
        <mxCell id="LGjzmEfDbxT8cVo_mgAx-164" style="edgeStyle=orthogonalEdgeStyle;rounded=0;orthogonalLoop=1;jettySize=auto;html=1;exitX=0.5;exitY=1;exitDx=0;exitDy=0;entryX=0;entryY=0.5;entryDx=0;entryDy=0;endArrow=classic;endFill=1;" edge="1" parent="1" source="LGjzmEfDbxT8cVo_mgAx-155" target="LGjzmEfDbxT8cVo_mgAx-162">
          <mxGeometry relative="1" as="geometry" />
        </mxCell>
        <mxCell id="LGjzmEfDbxT8cVo_mgAx-155" value="&amp;nbsp;head = NULL;" style="rounded=0;whiteSpace=wrap;html=1;" vertex="1" parent="1">
          <mxGeometry x="112" y="1552" width="120" height="60" as="geometry" />
        </mxCell>
        <mxCell id="LGjzmEfDbxT8cVo_mgAx-157" value="++++" style="text;html=1;align=center;verticalAlign=middle;resizable=0;points=[];autosize=1;strokeColor=none;" vertex="1" parent="1">
          <mxGeometry x="185" y="1523" width="48" height="24" as="geometry" />
        </mxCell>
        <mxCell id="LGjzmEfDbxT8cVo_mgAx-161" style="edgeStyle=orthogonalEdgeStyle;rounded=0;orthogonalLoop=1;jettySize=auto;html=1;exitX=0.5;exitY=1;exitDx=0;exitDy=0;entryX=0.5;entryY=0;entryDx=0;entryDy=0;endArrow=classic;endFill=1;" edge="1" parent="1" source="LGjzmEfDbxT8cVo_mgAx-158" target="LGjzmEfDbxT8cVo_mgAx-160">
          <mxGeometry relative="1" as="geometry" />
        </mxCell>
        <mxCell id="LGjzmEfDbxT8cVo_mgAx-158" value="temp-&amp;gt;prev-&amp;gt;next = NULL;" style="rounded=0;whiteSpace=wrap;html=1;" vertex="1" parent="1">
          <mxGeometry x="280" y="1466" width="120" height="60" as="geometry" />
        </mxCell>
        <mxCell id="LGjzmEfDbxT8cVo_mgAx-163" style="edgeStyle=orthogonalEdgeStyle;rounded=0;orthogonalLoop=1;jettySize=auto;html=1;exitX=0.5;exitY=1;exitDx=0;exitDy=0;entryX=0.5;entryY=0;entryDx=0;entryDy=0;endArrow=classic;endFill=1;" edge="1" parent="1" source="LGjzmEfDbxT8cVo_mgAx-160" target="LGjzmEfDbxT8cVo_mgAx-162">
          <mxGeometry relative="1" as="geometry" />
        </mxCell>
        <mxCell id="LGjzmEfDbxT8cVo_mgAx-160" value="free(temp);" style="rounded=0;whiteSpace=wrap;html=1;" vertex="1" parent="1">
          <mxGeometry x="280" y="1552" width="120" height="60" as="geometry" />
        </mxCell>
        <mxCell id="LGjzmEfDbxT8cVo_mgAx-162" value="printf(&quot;Позиция удалена \n&quot;);" style="rounded=1;whiteSpace=wrap;html=1;" vertex="1" parent="1">
          <mxGeometry x="220" y="1664" width="120" height="60" as="geometry" />
        </mxCell>
        <mxCell id="LGjzmEfDbxT8cVo_mgAx-165" value="----" style="text;html=1;align=center;verticalAlign=middle;resizable=0;points=[];autosize=1;strokeColor=none;" vertex="1" parent="1">
          <mxGeometry x="230" y="1474" width="36" height="24" as="geometry" />
        </mxCell>
        <mxCell id="LGjzmEfDbxT8cVo_mgAx-168" style="edgeStyle=orthogonalEdgeStyle;rounded=0;orthogonalLoop=1;jettySize=auto;html=1;exitX=0.5;exitY=1;exitDx=0;exitDy=0;entryX=0.5;entryY=0;entryDx=0;entryDy=0;endArrow=classic;endFill=1;" edge="1" parent="1" source="LGjzmEfDbxT8cVo_mgAx-166" target="LGjzmEfDbxT8cVo_mgAx-167">
          <mxGeometry relative="1" as="geometry" />
        </mxCell>
        <mxCell id="LGjzmEfDbxT8cVo_mgAx-166" value="3" style="ellipse;whiteSpace=wrap;html=1;aspect=fixed;" vertex="1" parent="1">
          <mxGeometry x="776" y="202" width="80" height="80" as="geometry" />
        </mxCell>
        <mxCell id="LGjzmEfDbxT8cVo_mgAx-170" style="edgeStyle=orthogonalEdgeStyle;rounded=0;orthogonalLoop=1;jettySize=auto;html=1;exitX=0.5;exitY=1;exitDx=0;exitDy=0;entryX=0.5;entryY=0;entryDx=0;entryDy=0;endArrow=classic;endFill=1;" edge="1" parent="1" source="LGjzmEfDbxT8cVo_mgAx-167" target="LGjzmEfDbxT8cVo_mgAx-169">
          <mxGeometry relative="1" as="geometry" />
        </mxCell>
        <mxCell id="LGjzmEfDbxT8cVo_mgAx-167" value="struct Node *temp = head;" style="rounded=0;whiteSpace=wrap;html=1;" vertex="1" parent="1">
          <mxGeometry x="756" y="308" width="120" height="60" as="geometry" />
        </mxCell>
        <mxCell id="LGjzmEfDbxT8cVo_mgAx-209" style="edgeStyle=orthogonalEdgeStyle;rounded=0;orthogonalLoop=1;jettySize=auto;html=1;exitX=0.5;exitY=1;exitDx=0;exitDy=0;entryX=0.5;entryY=0;entryDx=0;entryDy=0;endArrow=classic;endFill=1;" edge="1" parent="1" source="LGjzmEfDbxT8cVo_mgAx-169" target="LGjzmEfDbxT8cVo_mgAx-171">
          <mxGeometry relative="1" as="geometry" />
        </mxCell>
        <mxCell id="LGjzmEfDbxT8cVo_mgAx-169" value="Введите ключевое слово для поиска:" style="rounded=1;whiteSpace=wrap;html=1;" vertex="1" parent="1">
          <mxGeometry x="756" y="394" width="120" height="60" as="geometry" />
        </mxCell>
        <mxCell id="LGjzmEfDbxT8cVo_mgAx-210" style="edgeStyle=orthogonalEdgeStyle;rounded=0;orthogonalLoop=1;jettySize=auto;html=1;exitX=0.5;exitY=1;exitDx=0;exitDy=0;entryX=0.5;entryY=0;entryDx=0;entryDy=0;endArrow=classic;endFill=1;" edge="1" parent="1" source="LGjzmEfDbxT8cVo_mgAx-171" target="LGjzmEfDbxT8cVo_mgAx-208">
          <mxGeometry relative="1" as="geometry" />
        </mxCell>
        <mxCell id="LGjzmEfDbxT8cVo_mgAx-171" value="scanf(&quot; %30[^\n]&quot;, keyword);" style="rounded=0;whiteSpace=wrap;html=1;" vertex="1" parent="1">
          <mxGeometry x="756" y="480" width="120" height="60" as="geometry" />
        </mxCell>
        <mxCell id="LGjzmEfDbxT8cVo_mgAx-176" style="edgeStyle=orthogonalEdgeStyle;rounded=0;orthogonalLoop=1;jettySize=auto;html=1;exitX=0.5;exitY=1;exitDx=0;exitDy=0;entryX=0.5;entryY=0;entryDx=0;entryDy=0;endArrow=classic;endFill=1;" edge="1" parent="1" source="LGjzmEfDbxT8cVo_mgAx-173" target="LGjzmEfDbxT8cVo_mgAx-175">
          <mxGeometry relative="1" as="geometry">
            <mxPoint x="816" y="843" as="sourcePoint" />
          </mxGeometry>
        </mxCell>
        <mxCell id="LGjzmEfDbxT8cVo_mgAx-293" style="edgeStyle=orthogonalEdgeStyle;rounded=0;orthogonalLoop=1;jettySize=auto;html=1;exitX=1;exitY=0.5;exitDx=0;exitDy=0;entryX=0;entryY=0.5;entryDx=0;entryDy=0;endArrow=classic;endFill=1;" edge="1" parent="1" source="LGjzmEfDbxT8cVo_mgAx-173" target="LGjzmEfDbxT8cVo_mgAx-292">
          <mxGeometry relative="1" as="geometry" />
        </mxCell>
        <mxCell id="LGjzmEfDbxT8cVo_mgAx-173" value="&lt;font style=&quot;font-size: 11px&quot;&gt;(temp-&amp;gt;jewelry_stone_type, keyword) != NULL || (temp-&amp;gt;jewelry_stone_name, keyword) != NULL)&lt;/font&gt;" style="rhombus;whiteSpace=wrap;html=1;" vertex="1" parent="1">
          <mxGeometry x="681" y="682" width="270" height="158" as="geometry" />
        </mxCell>
        <mxCell id="LGjzmEfDbxT8cVo_mgAx-178" style="edgeStyle=orthogonalEdgeStyle;rounded=0;orthogonalLoop=1;jettySize=auto;html=1;exitX=0.5;exitY=1;exitDx=0;exitDy=0;endArrow=classic;endFill=1;entryX=0.5;entryY=0;entryDx=0;entryDy=0;" edge="1" parent="1" source="LGjzmEfDbxT8cVo_mgAx-175" target="LGjzmEfDbxT8cVo_mgAx-177">
          <mxGeometry relative="1" as="geometry">
            <mxPoint x="816" y="949" as="targetPoint" />
          </mxGeometry>
        </mxCell>
        <mxCell id="LGjzmEfDbxT8cVo_mgAx-175" value="Вы выбрали: %s. Изменять этот камень или искать дальше?\n&quot;, temp-&amp;gt;jewelry_stone_name" style="rounded=1;whiteSpace=wrap;html=1;" vertex="1" parent="1">
          <mxGeometry x="678" y="865" width="276" height="60" as="geometry" />
        </mxCell>
        <mxCell id="LGjzmEfDbxT8cVo_mgAx-180" style="edgeStyle=orthogonalEdgeStyle;rounded=0;orthogonalLoop=1;jettySize=auto;html=1;exitX=0.5;exitY=1;exitDx=0;exitDy=0;entryX=0.5;entryY=0;entryDx=0;entryDy=0;endArrow=classic;endFill=1;" edge="1" parent="1" source="LGjzmEfDbxT8cVo_mgAx-177" target="LGjzmEfDbxT8cVo_mgAx-179">
          <mxGeometry relative="1" as="geometry" />
        </mxCell>
        <mxCell id="LGjzmEfDbxT8cVo_mgAx-177" value="&lt;div&gt;puts(&quot;1 - Изменять этот&quot;);&lt;/div&gt;&lt;div&gt;&lt;span&gt;puts(&quot;2 - Искать дальше&quot;);&lt;/span&gt;&lt;/div&gt;" style="rounded=1;whiteSpace=wrap;html=1;" vertex="1" parent="1">
          <mxGeometry x="756" y="953" width="120" height="60" as="geometry" />
        </mxCell>
        <mxCell id="LGjzmEfDbxT8cVo_mgAx-182" style="edgeStyle=orthogonalEdgeStyle;rounded=0;orthogonalLoop=1;jettySize=auto;html=1;exitX=0.5;exitY=1;exitDx=0;exitDy=0;entryX=0.5;entryY=0;entryDx=0;entryDy=0;endArrow=classic;endFill=1;" edge="1" parent="1" source="LGjzmEfDbxT8cVo_mgAx-179" target="LGjzmEfDbxT8cVo_mgAx-181">
          <mxGeometry relative="1" as="geometry" />
        </mxCell>
        <mxCell id="LGjzmEfDbxT8cVo_mgAx-179" value="scanf(&quot;%d&quot;, &amp;amp;n);" style="rounded=0;whiteSpace=wrap;html=1;" vertex="1" parent="1">
          <mxGeometry x="756" y="1045" width="120" height="60" as="geometry" />
        </mxCell>
        <mxCell id="LGjzmEfDbxT8cVo_mgAx-184" style="edgeStyle=orthogonalEdgeStyle;rounded=0;orthogonalLoop=1;jettySize=auto;html=1;exitX=0.5;exitY=1;exitDx=0;exitDy=0;entryX=0.5;entryY=0;entryDx=0;entryDy=0;endArrow=classic;endFill=1;" edge="1" parent="1" source="LGjzmEfDbxT8cVo_mgAx-181" target="LGjzmEfDbxT8cVo_mgAx-183">
          <mxGeometry relative="1" as="geometry" />
        </mxCell>
        <mxCell id="LGjzmEfDbxT8cVo_mgAx-190" style="edgeStyle=orthogonalEdgeStyle;rounded=0;orthogonalLoop=1;jettySize=auto;html=1;exitX=1;exitY=0.5;exitDx=0;exitDy=0;entryX=0.5;entryY=0;entryDx=0;entryDy=0;endArrow=classic;endFill=1;" edge="1" parent="1" source="LGjzmEfDbxT8cVo_mgAx-181" target="LGjzmEfDbxT8cVo_mgAx-189">
          <mxGeometry relative="1" as="geometry">
            <Array as="points">
              <mxPoint x="900" y="1185" />
              <mxPoint x="900" y="1333" />
              <mxPoint x="816" y="1333" />
            </Array>
          </mxGeometry>
        </mxCell>
        <mxCell id="LGjzmEfDbxT8cVo_mgAx-181" value="n == 2" style="rhombus;whiteSpace=wrap;html=1;" vertex="1" parent="1">
          <mxGeometry x="776" y="1145" width="80" height="80" as="geometry" />
        </mxCell>
        <mxCell id="LGjzmEfDbxT8cVo_mgAx-185" style="edgeStyle=orthogonalEdgeStyle;rounded=0;orthogonalLoop=1;jettySize=auto;html=1;exitX=0;exitY=0.5;exitDx=0;exitDy=0;entryX=0.004;entryY=0.494;entryDx=0;entryDy=0;endArrow=classic;endFill=1;entryPerimeter=0;" edge="1" parent="1" source="LGjzmEfDbxT8cVo_mgAx-183" target="LGjzmEfDbxT8cVo_mgAx-173">
          <mxGeometry relative="1" as="geometry">
            <mxPoint x="681" y="764" as="targetPoint" />
            <Array as="points">
              <mxPoint x="672" y="1279" />
              <mxPoint x="672" y="760" />
            </Array>
          </mxGeometry>
        </mxCell>
        <mxCell id="LGjzmEfDbxT8cVo_mgAx-183" value="continue" style="rounded=0;whiteSpace=wrap;html=1;" vertex="1" parent="1">
          <mxGeometry x="756" y="1249" width="120" height="60" as="geometry" />
        </mxCell>
        <mxCell id="LGjzmEfDbxT8cVo_mgAx-186" value="+++" style="text;html=1;align=center;verticalAlign=middle;resizable=0;points=[];autosize=1;strokeColor=none;" vertex="1" parent="1">
          <mxGeometry x="820" y="1219" width="36" height="24" as="geometry" />
        </mxCell>
        <mxCell id="LGjzmEfDbxT8cVo_mgAx-187" value="---" style="text;html=1;align=center;verticalAlign=middle;resizable=0;points=[];autosize=1;strokeColor=none;" vertex="1" parent="1">
          <mxGeometry x="840" y="1157" width="36" height="24" as="geometry" />
        </mxCell>
        <mxCell id="LGjzmEfDbxT8cVo_mgAx-199" style="edgeStyle=orthogonalEdgeStyle;rounded=0;orthogonalLoop=1;jettySize=auto;html=1;exitX=0.5;exitY=1;exitDx=0;exitDy=0;endArrow=classic;endFill=1;" edge="1" parent="1" source="LGjzmEfDbxT8cVo_mgAx-189" target="LGjzmEfDbxT8cVo_mgAx-191">
          <mxGeometry relative="1" as="geometry" />
        </mxCell>
        <mxCell id="LGjzmEfDbxT8cVo_mgAx-189" value="puts(&quot;Что вы хотите изменить?&quot;);" style="rounded=1;whiteSpace=wrap;html=1;" vertex="1" parent="1">
          <mxGeometry x="756" y="1369" width="120" height="60" as="geometry" />
        </mxCell>
        <mxCell id="LGjzmEfDbxT8cVo_mgAx-200" style="edgeStyle=orthogonalEdgeStyle;rounded=0;orthogonalLoop=1;jettySize=auto;html=1;exitX=0.5;exitY=1;exitDx=0;exitDy=0;entryX=0.5;entryY=0;entryDx=0;entryDy=0;endArrow=classic;endFill=1;" edge="1" parent="1" source="LGjzmEfDbxT8cVo_mgAx-191" target="LGjzmEfDbxT8cVo_mgAx-193">
          <mxGeometry relative="1" as="geometry" />
        </mxCell>
        <mxCell id="LGjzmEfDbxT8cVo_mgAx-191" value="&quot;1 - Название&quot;" style="rounded=1;whiteSpace=wrap;html=1;" vertex="1" parent="1">
          <mxGeometry x="756" y="1453" width="120" height="60" as="geometry" />
        </mxCell>
        <mxCell id="LGjzmEfDbxT8cVo_mgAx-202" style="edgeStyle=orthogonalEdgeStyle;rounded=0;orthogonalLoop=1;jettySize=auto;html=1;exitX=0.5;exitY=1;exitDx=0;exitDy=0;entryX=0.5;entryY=0;entryDx=0;entryDy=0;endArrow=classic;endFill=1;" edge="1" parent="1" source="LGjzmEfDbxT8cVo_mgAx-192" target="LGjzmEfDbxT8cVo_mgAx-195">
          <mxGeometry relative="1" as="geometry" />
        </mxCell>
        <mxCell id="LGjzmEfDbxT8cVo_mgAx-192" value="&quot;3 - Дата прибытия&quot;" style="rounded=1;whiteSpace=wrap;html=1;" vertex="1" parent="1">
          <mxGeometry x="756" y="1621" width="120" height="60" as="geometry" />
        </mxCell>
        <mxCell id="LGjzmEfDbxT8cVo_mgAx-201" style="edgeStyle=orthogonalEdgeStyle;rounded=0;orthogonalLoop=1;jettySize=auto;html=1;exitX=0.5;exitY=1;exitDx=0;exitDy=0;endArrow=classic;endFill=1;" edge="1" parent="1" source="LGjzmEfDbxT8cVo_mgAx-193" target="LGjzmEfDbxT8cVo_mgAx-192">
          <mxGeometry relative="1" as="geometry" />
        </mxCell>
        <mxCell id="LGjzmEfDbxT8cVo_mgAx-193" value="&quot;2 - Тип камня&quot;" style="rounded=1;whiteSpace=wrap;html=1;" vertex="1" parent="1">
          <mxGeometry x="756" y="1535" width="120" height="60" as="geometry" />
        </mxCell>
        <mxCell id="LGjzmEfDbxT8cVo_mgAx-203" style="edgeStyle=orthogonalEdgeStyle;rounded=0;orthogonalLoop=1;jettySize=auto;html=1;exitX=0.5;exitY=1;exitDx=0;exitDy=0;entryX=0.5;entryY=0;entryDx=0;entryDy=0;endArrow=classic;endFill=1;" edge="1" parent="1" source="LGjzmEfDbxT8cVo_mgAx-195" target="LGjzmEfDbxT8cVo_mgAx-196">
          <mxGeometry relative="1" as="geometry" />
        </mxCell>
        <mxCell id="LGjzmEfDbxT8cVo_mgAx-195" value="&quot;4 - Вес камня&quot;" style="rounded=1;whiteSpace=wrap;html=1;" vertex="1" parent="1">
          <mxGeometry x="756" y="1701" width="120" height="60" as="geometry" />
        </mxCell>
        <mxCell id="LGjzmEfDbxT8cVo_mgAx-204" style="edgeStyle=orthogonalEdgeStyle;rounded=0;orthogonalLoop=1;jettySize=auto;html=1;exitX=0.5;exitY=1;exitDx=0;exitDy=0;entryX=0.5;entryY=0;entryDx=0;entryDy=0;endArrow=classic;endFill=1;" edge="1" parent="1" source="LGjzmEfDbxT8cVo_mgAx-196" target="LGjzmEfDbxT8cVo_mgAx-197">
          <mxGeometry relative="1" as="geometry" />
        </mxCell>
        <mxCell id="LGjzmEfDbxT8cVo_mgAx-196" value="&quot;5 - Кол-во камней&quot;" style="rounded=1;whiteSpace=wrap;html=1;" vertex="1" parent="1">
          <mxGeometry x="756" y="1784" width="120" height="60" as="geometry" />
        </mxCell>
        <mxCell id="LGjzmEfDbxT8cVo_mgAx-205" style="edgeStyle=orthogonalEdgeStyle;rounded=0;orthogonalLoop=1;jettySize=auto;html=1;exitX=0.5;exitY=1;exitDx=0;exitDy=0;entryX=0.5;entryY=0;entryDx=0;entryDy=0;endArrow=classic;endFill=1;" edge="1" parent="1" source="LGjzmEfDbxT8cVo_mgAx-197" target="LGjzmEfDbxT8cVo_mgAx-198">
          <mxGeometry relative="1" as="geometry" />
        </mxCell>
        <mxCell id="LGjzmEfDbxT8cVo_mgAx-197" value="&quot;6 - Вес в карат&quot;" style="rounded=1;whiteSpace=wrap;html=1;" vertex="1" parent="1">
          <mxGeometry x="756" y="1861" width="120" height="60" as="geometry" />
        </mxCell>
        <mxCell id="LGjzmEfDbxT8cVo_mgAx-207" style="edgeStyle=orthogonalEdgeStyle;rounded=0;orthogonalLoop=1;jettySize=auto;html=1;exitX=0.5;exitY=1;exitDx=0;exitDy=0;entryX=0.5;entryY=0;entryDx=0;entryDy=0;endArrow=classic;endFill=1;" edge="1" parent="1" source="LGjzmEfDbxT8cVo_mgAx-198" target="LGjzmEfDbxT8cVo_mgAx-206">
          <mxGeometry relative="1" as="geometry" />
        </mxCell>
        <mxCell id="LGjzmEfDbxT8cVo_mgAx-198" value="&quot;7 - Стоимость&quot;" style="rounded=1;whiteSpace=wrap;html=1;" vertex="1" parent="1">
          <mxGeometry x="756" y="1945" width="120" height="60" as="geometry" />
        </mxCell>
        <mxCell id="LGjzmEfDbxT8cVo_mgAx-213" style="edgeStyle=orthogonalEdgeStyle;rounded=0;orthogonalLoop=1;jettySize=auto;html=1;exitX=0.5;exitY=1;exitDx=0;exitDy=0;entryX=0;entryY=0.5;entryDx=0;entryDy=0;endArrow=classic;endFill=1;" edge="1" parent="1" source="LGjzmEfDbxT8cVo_mgAx-206" target="LGjzmEfDbxT8cVo_mgAx-212">
          <mxGeometry relative="1" as="geometry" />
        </mxCell>
        <mxCell id="LGjzmEfDbxT8cVo_mgAx-206" value="scanf(&quot;%d&quot;, &amp;amp;n);" style="rounded=0;whiteSpace=wrap;html=1;" vertex="1" parent="1">
          <mxGeometry x="756" y="2029" width="120" height="60" as="geometry" />
        </mxCell>
        <mxCell id="LGjzmEfDbxT8cVo_mgAx-211" style="edgeStyle=orthogonalEdgeStyle;rounded=0;orthogonalLoop=1;jettySize=auto;html=1;exitX=0.5;exitY=1;exitDx=0;exitDy=0;entryX=0.5;entryY=0;entryDx=0;entryDy=0;endArrow=classic;endFill=1;" edge="1" parent="1" source="LGjzmEfDbxT8cVo_mgAx-208" target="LGjzmEfDbxT8cVo_mgAx-173">
          <mxGeometry relative="1" as="geometry" />
        </mxCell>
        <mxCell id="LGjzmEfDbxT8cVo_mgAx-208" value="temp != NULL" style="shape=hexagon;perimeter=hexagonPerimeter2;whiteSpace=wrap;html=1;fixedSize=1;" vertex="1" parent="1">
          <mxGeometry x="756" y="564" width="120" height="80" as="geometry" />
        </mxCell>
        <mxCell id="LGjzmEfDbxT8cVo_mgAx-228" style="edgeStyle=orthogonalEdgeStyle;rounded=0;orthogonalLoop=1;jettySize=auto;html=1;exitX=0.5;exitY=1;exitDx=0;exitDy=0;entryX=0.5;entryY=0;entryDx=0;entryDy=0;endArrow=classic;endFill=1;" edge="1" parent="1" source="LGjzmEfDbxT8cVo_mgAx-212" target="LGjzmEfDbxT8cVo_mgAx-214">
          <mxGeometry relative="1" as="geometry" />
        </mxCell>
        <mxCell id="LGjzmEfDbxT8cVo_mgAx-231" style="edgeStyle=orthogonalEdgeStyle;rounded=0;orthogonalLoop=1;jettySize=auto;html=1;exitX=1;exitY=1;exitDx=0;exitDy=0;entryX=0.5;entryY=0;entryDx=0;entryDy=0;endArrow=classic;endFill=1;" edge="1" parent="1" source="LGjzmEfDbxT8cVo_mgAx-212" target="LGjzmEfDbxT8cVo_mgAx-223">
          <mxGeometry relative="1" as="geometry" />
        </mxCell>
        <mxCell id="LGjzmEfDbxT8cVo_mgAx-234" style="edgeStyle=orthogonalEdgeStyle;rounded=0;orthogonalLoop=1;jettySize=auto;html=1;exitX=0.5;exitY=0;exitDx=0;exitDy=0;entryX=0.5;entryY=0;entryDx=0;entryDy=0;endArrow=classic;endFill=1;" edge="1" parent="1" source="LGjzmEfDbxT8cVo_mgAx-212" target="LGjzmEfDbxT8cVo_mgAx-227">
          <mxGeometry relative="1" as="geometry" />
        </mxCell>
        <mxCell id="LGjzmEfDbxT8cVo_mgAx-235" style="edgeStyle=orthogonalEdgeStyle;rounded=0;orthogonalLoop=1;jettySize=auto;html=1;exitX=0.563;exitY=0.042;exitDx=0;exitDy=0;entryX=0.5;entryY=0;entryDx=0;entryDy=0;endArrow=classic;endFill=1;exitPerimeter=0;" edge="1" parent="1" source="LGjzmEfDbxT8cVo_mgAx-212" target="LGjzmEfDbxT8cVo_mgAx-226">
          <mxGeometry relative="1" as="geometry" />
        </mxCell>
        <mxCell id="LGjzmEfDbxT8cVo_mgAx-237" style="edgeStyle=orthogonalEdgeStyle;rounded=0;orthogonalLoop=1;jettySize=auto;html=1;exitX=0.686;exitY=0.189;exitDx=0;exitDy=0;entryX=0.5;entryY=0;entryDx=0;entryDy=0;endArrow=classic;endFill=1;exitPerimeter=0;" edge="1" parent="1" source="LGjzmEfDbxT8cVo_mgAx-212" target="LGjzmEfDbxT8cVo_mgAx-225">
          <mxGeometry relative="1" as="geometry">
            <Array as="points">
              <mxPoint x="999" y="1893.76" />
              <mxPoint x="1416" y="1893.76" />
            </Array>
          </mxGeometry>
        </mxCell>
        <mxCell id="LGjzmEfDbxT8cVo_mgAx-240" style="edgeStyle=orthogonalEdgeStyle;rounded=0;orthogonalLoop=1;jettySize=auto;html=1;exitX=1;exitY=0;exitDx=0;exitDy=0;entryX=0.5;entryY=0;entryDx=0;entryDy=0;endArrow=classic;endFill=1;" edge="1" parent="1" source="LGjzmEfDbxT8cVo_mgAx-212" target="LGjzmEfDbxT8cVo_mgAx-222">
          <mxGeometry relative="1" as="geometry" />
        </mxCell>
        <mxCell id="LGjzmEfDbxT8cVo_mgAx-241" style="edgeStyle=orthogonalEdgeStyle;rounded=0;orthogonalLoop=1;jettySize=auto;html=1;exitX=1;exitY=0.5;exitDx=0;exitDy=0;entryX=0.5;entryY=0;entryDx=0;entryDy=0;endArrow=classic;endFill=1;" edge="1" parent="1" source="LGjzmEfDbxT8cVo_mgAx-212" target="LGjzmEfDbxT8cVo_mgAx-224">
          <mxGeometry relative="1" as="geometry" />
        </mxCell>
        <mxCell id="LGjzmEfDbxT8cVo_mgAx-212" value="&lt;div&gt;&amp;nbsp;switch (n)&lt;/div&gt;&lt;div&gt;&lt;br&gt;&lt;/div&gt;" style="rhombus;whiteSpace=wrap;html=1;" vertex="1" parent="1">
          <mxGeometry x="944" y="1883.76" width="80" height="80" as="geometry" />
        </mxCell>
        <mxCell id="LGjzmEfDbxT8cVo_mgAx-243" style="edgeStyle=orthogonalEdgeStyle;rounded=0;orthogonalLoop=1;jettySize=auto;html=1;exitX=0.5;exitY=1;exitDx=0;exitDy=0;entryX=0.5;entryY=0;entryDx=0;entryDy=0;endArrow=classic;endFill=1;" edge="1" parent="1" source="LGjzmEfDbxT8cVo_mgAx-214" target="LGjzmEfDbxT8cVo_mgAx-242">
          <mxGeometry relative="1" as="geometry" />
        </mxCell>
        <mxCell id="LGjzmEfDbxT8cVo_mgAx-214" value="1" style="ellipse;whiteSpace=wrap;html=1;aspect=fixed;" vertex="1" parent="1">
          <mxGeometry x="944" y="1977.76" width="80" height="80" as="geometry" />
        </mxCell>
        <mxCell id="LGjzmEfDbxT8cVo_mgAx-274" style="edgeStyle=orthogonalEdgeStyle;rounded=0;orthogonalLoop=1;jettySize=auto;html=1;exitX=0.5;exitY=1;exitDx=0;exitDy=0;entryX=0.5;entryY=0;entryDx=0;entryDy=0;endArrow=classic;endFill=1;" edge="1" parent="1" source="LGjzmEfDbxT8cVo_mgAx-222" target="LGjzmEfDbxT8cVo_mgAx-259">
          <mxGeometry relative="1" as="geometry" />
        </mxCell>
        <mxCell id="LGjzmEfDbxT8cVo_mgAx-222" value="4" style="ellipse;whiteSpace=wrap;html=1;aspect=fixed;" vertex="1" parent="1">
          <mxGeometry x="1268" y="1977.76" width="80" height="80" as="geometry" />
        </mxCell>
        <mxCell id="LGjzmEfDbxT8cVo_mgAx-276" style="edgeStyle=orthogonalEdgeStyle;rounded=0;orthogonalLoop=1;jettySize=auto;html=1;exitX=0.5;exitY=1;exitDx=0;exitDy=0;entryX=0.5;entryY=0;entryDx=0;entryDy=0;endArrow=classic;endFill=1;" edge="1" parent="1" source="LGjzmEfDbxT8cVo_mgAx-223" target="LGjzmEfDbxT8cVo_mgAx-253">
          <mxGeometry relative="1" as="geometry" />
        </mxCell>
        <mxCell id="LGjzmEfDbxT8cVo_mgAx-223" value="2" style="ellipse;whiteSpace=wrap;html=1;aspect=fixed;" vertex="1" parent="1">
          <mxGeometry x="1052" y="1980.76" width="80" height="80" as="geometry" />
        </mxCell>
        <mxCell id="LGjzmEfDbxT8cVo_mgAx-275" style="edgeStyle=orthogonalEdgeStyle;rounded=0;orthogonalLoop=1;jettySize=auto;html=1;exitX=0.5;exitY=1;exitDx=0;exitDy=0;entryX=0.5;entryY=0;entryDx=0;entryDy=0;endArrow=classic;endFill=1;" edge="1" parent="1" source="LGjzmEfDbxT8cVo_mgAx-224" target="LGjzmEfDbxT8cVo_mgAx-256">
          <mxGeometry relative="1" as="geometry" />
        </mxCell>
        <mxCell id="LGjzmEfDbxT8cVo_mgAx-224" value="3" style="ellipse;whiteSpace=wrap;html=1;aspect=fixed;" vertex="1" parent="1">
          <mxGeometry x="1160" y="1977.76" width="80" height="80" as="geometry" />
        </mxCell>
        <mxCell id="LGjzmEfDbxT8cVo_mgAx-273" style="edgeStyle=orthogonalEdgeStyle;rounded=0;orthogonalLoop=1;jettySize=auto;html=1;exitX=0.5;exitY=1;exitDx=0;exitDy=0;entryX=0.5;entryY=0;entryDx=0;entryDy=0;endArrow=classic;endFill=1;" edge="1" parent="1" source="LGjzmEfDbxT8cVo_mgAx-225" target="LGjzmEfDbxT8cVo_mgAx-262">
          <mxGeometry relative="1" as="geometry" />
        </mxCell>
        <mxCell id="LGjzmEfDbxT8cVo_mgAx-225" value="5" style="ellipse;whiteSpace=wrap;html=1;aspect=fixed;" vertex="1" parent="1">
          <mxGeometry x="1376" y="1977.76" width="80" height="80" as="geometry" />
        </mxCell>
        <mxCell id="LGjzmEfDbxT8cVo_mgAx-272" style="edgeStyle=orthogonalEdgeStyle;rounded=0;orthogonalLoop=1;jettySize=auto;html=1;exitX=0.5;exitY=1;exitDx=0;exitDy=0;entryX=0.5;entryY=0;entryDx=0;entryDy=0;endArrow=classic;endFill=1;" edge="1" parent="1" source="LGjzmEfDbxT8cVo_mgAx-226" target="LGjzmEfDbxT8cVo_mgAx-265">
          <mxGeometry relative="1" as="geometry" />
        </mxCell>
        <mxCell id="LGjzmEfDbxT8cVo_mgAx-226" value="6" style="ellipse;whiteSpace=wrap;html=1;aspect=fixed;" vertex="1" parent="1">
          <mxGeometry x="1484" y="1977.76" width="80" height="80" as="geometry" />
        </mxCell>
        <mxCell id="LGjzmEfDbxT8cVo_mgAx-271" style="edgeStyle=orthogonalEdgeStyle;rounded=0;orthogonalLoop=1;jettySize=auto;html=1;exitX=0.5;exitY=1;exitDx=0;exitDy=0;entryX=0.5;entryY=0;entryDx=0;entryDy=0;endArrow=classic;endFill=1;" edge="1" parent="1" source="LGjzmEfDbxT8cVo_mgAx-227" target="LGjzmEfDbxT8cVo_mgAx-268">
          <mxGeometry relative="1" as="geometry" />
        </mxCell>
        <mxCell id="LGjzmEfDbxT8cVo_mgAx-227" value="7" style="ellipse;whiteSpace=wrap;html=1;aspect=fixed;" vertex="1" parent="1">
          <mxGeometry x="1580" y="1980.76" width="80" height="80" as="geometry" />
        </mxCell>
        <mxCell id="LGjzmEfDbxT8cVo_mgAx-246" style="edgeStyle=orthogonalEdgeStyle;rounded=0;orthogonalLoop=1;jettySize=auto;html=1;exitX=0.5;exitY=1;exitDx=0;exitDy=0;entryX=0.5;entryY=0;entryDx=0;entryDy=0;endArrow=classic;endFill=1;" edge="1" parent="1" source="LGjzmEfDbxT8cVo_mgAx-242" target="LGjzmEfDbxT8cVo_mgAx-244">
          <mxGeometry relative="1" as="geometry" />
        </mxCell>
        <mxCell id="LGjzmEfDbxT8cVo_mgAx-242" value="Введите новое название:" style="rounded=1;whiteSpace=wrap;html=1;" vertex="1" parent="1">
          <mxGeometry x="940" y="2073.61" width="84" height="60" as="geometry" />
        </mxCell>
        <mxCell id="LGjzmEfDbxT8cVo_mgAx-247" style="edgeStyle=orthogonalEdgeStyle;rounded=0;orthogonalLoop=1;jettySize=auto;html=1;exitX=0.5;exitY=1;exitDx=0;exitDy=0;entryX=0.5;entryY=0;entryDx=0;entryDy=0;endArrow=classic;endFill=1;" edge="1" parent="1" source="LGjzmEfDbxT8cVo_mgAx-244" target="LGjzmEfDbxT8cVo_mgAx-245">
          <mxGeometry relative="1" as="geometry" />
        </mxCell>
        <mxCell id="LGjzmEfDbxT8cVo_mgAx-244" value="buffer" style="rounded=0;whiteSpace=wrap;html=1;" vertex="1" parent="1">
          <mxGeometry x="940" y="2152.61" width="84" height="60" as="geometry" />
        </mxCell>
        <mxCell id="LGjzmEfDbxT8cVo_mgAx-301" style="edgeStyle=orthogonalEdgeStyle;rounded=0;orthogonalLoop=1;jettySize=auto;html=1;exitX=0.5;exitY=1;exitDx=0;exitDy=0;entryX=0.087;entryY=0.841;entryDx=0;entryDy=0;entryPerimeter=0;endArrow=classic;endFill=1;" edge="1" parent="1" source="LGjzmEfDbxT8cVo_mgAx-245" target="LGjzmEfDbxT8cVo_mgAx-208">
          <mxGeometry relative="1" as="geometry">
            <Array as="points">
              <mxPoint x="982" y="2275" />
              <mxPoint x="643" y="2275" />
              <mxPoint x="643" y="631" />
            </Array>
          </mxGeometry>
        </mxCell>
        <mxCell id="LGjzmEfDbxT8cVo_mgAx-245" value="temp-&amp;gt;jewelry_name, buffer&lt;br&gt;" style="rounded=0;whiteSpace=wrap;html=1;" vertex="1" parent="1">
          <mxGeometry x="940" y="2224.61" width="84" height="44.18" as="geometry" />
        </mxCell>
        <mxCell id="LGjzmEfDbxT8cVo_mgAx-277" style="edgeStyle=orthogonalEdgeStyle;rounded=0;orthogonalLoop=1;jettySize=auto;html=1;exitX=0.5;exitY=1;exitDx=0;exitDy=0;entryX=0.5;entryY=0;entryDx=0;entryDy=0;endArrow=classic;endFill=1;" edge="1" parent="1" source="LGjzmEfDbxT8cVo_mgAx-253" target="LGjzmEfDbxT8cVo_mgAx-254">
          <mxGeometry relative="1" as="geometry" />
        </mxCell>
        <mxCell id="LGjzmEfDbxT8cVo_mgAx-253" value="&quot;Введите новый тип камня&quot;" style="rounded=1;whiteSpace=wrap;html=1;" vertex="1" parent="1">
          <mxGeometry x="1048" y="2073.61" width="84" height="60" as="geometry" />
        </mxCell>
        <mxCell id="LGjzmEfDbxT8cVo_mgAx-283" style="edgeStyle=orthogonalEdgeStyle;rounded=0;orthogonalLoop=1;jettySize=auto;html=1;exitX=0.5;exitY=1;exitDx=0;exitDy=0;entryX=0.5;entryY=0;entryDx=0;entryDy=0;endArrow=classic;endFill=1;" edge="1" parent="1" source="LGjzmEfDbxT8cVo_mgAx-254" target="LGjzmEfDbxT8cVo_mgAx-255">
          <mxGeometry relative="1" as="geometry" />
        </mxCell>
        <mxCell id="LGjzmEfDbxT8cVo_mgAx-254" value="buffer" style="rounded=0;whiteSpace=wrap;html=1;" vertex="1" parent="1">
          <mxGeometry x="1048" y="2152.61" width="84" height="60" as="geometry" />
        </mxCell>
        <mxCell id="LGjzmEfDbxT8cVo_mgAx-300" style="edgeStyle=orthogonalEdgeStyle;rounded=0;orthogonalLoop=1;jettySize=auto;html=1;exitX=0.5;exitY=1;exitDx=0;exitDy=0;endArrow=classic;endFill=1;" edge="1" parent="1" source="LGjzmEfDbxT8cVo_mgAx-255" target="LGjzmEfDbxT8cVo_mgAx-208">
          <mxGeometry relative="1" as="geometry">
            <Array as="points">
              <mxPoint x="1090" y="2280" />
              <mxPoint x="638" y="2280" />
              <mxPoint x="638" y="621" />
            </Array>
          </mxGeometry>
        </mxCell>
        <mxCell id="LGjzmEfDbxT8cVo_mgAx-255" value="temp-&amp;gt;jewelry_stone_type, buffer" style="rounded=0;whiteSpace=wrap;html=1;" vertex="1" parent="1">
          <mxGeometry x="1048" y="2224.61" width="84" height="44.18" as="geometry" />
        </mxCell>
        <mxCell id="LGjzmEfDbxT8cVo_mgAx-278" style="edgeStyle=orthogonalEdgeStyle;rounded=0;orthogonalLoop=1;jettySize=auto;html=1;exitX=0.5;exitY=1;exitDx=0;exitDy=0;entryX=0.5;entryY=0;entryDx=0;entryDy=0;endArrow=classic;endFill=1;" edge="1" parent="1" source="LGjzmEfDbxT8cVo_mgAx-256" target="LGjzmEfDbxT8cVo_mgAx-257">
          <mxGeometry relative="1" as="geometry" />
        </mxCell>
        <mxCell id="LGjzmEfDbxT8cVo_mgAx-256" value="&quot;Введите новую дату&quot;" style="rounded=1;whiteSpace=wrap;html=1;" vertex="1" parent="1">
          <mxGeometry x="1160" y="2073.61" width="84" height="60" as="geometry" />
        </mxCell>
        <mxCell id="LGjzmEfDbxT8cVo_mgAx-284" style="edgeStyle=orthogonalEdgeStyle;rounded=0;orthogonalLoop=1;jettySize=auto;html=1;exitX=0.5;exitY=1;exitDx=0;exitDy=0;entryX=0.5;entryY=0;entryDx=0;entryDy=0;endArrow=classic;endFill=1;" edge="1" parent="1" source="LGjzmEfDbxT8cVo_mgAx-257" target="LGjzmEfDbxT8cVo_mgAx-258">
          <mxGeometry relative="1" as="geometry" />
        </mxCell>
        <mxCell id="LGjzmEfDbxT8cVo_mgAx-257" value="buffer" style="rounded=0;whiteSpace=wrap;html=1;" vertex="1" parent="1">
          <mxGeometry x="1160" y="2152.61" width="84" height="60" as="geometry" />
        </mxCell>
        <mxCell id="LGjzmEfDbxT8cVo_mgAx-299" style="edgeStyle=orthogonalEdgeStyle;rounded=0;orthogonalLoop=1;jettySize=auto;html=1;exitX=0.43;exitY=0.982;exitDx=0;exitDy=0;endArrow=classic;endFill=1;exitPerimeter=0;" edge="1" parent="1" target="LGjzmEfDbxT8cVo_mgAx-208">
          <mxGeometry relative="1" as="geometry">
            <mxPoint x="1178.11" y="2263.48476" as="sourcePoint" />
            <mxPoint x="742.79" y="607.7299999999999" as="targetPoint" />
            <Array as="points">
              <mxPoint x="1178" y="2285" />
              <mxPoint x="632" y="2285" />
              <mxPoint x="632" y="610" />
            </Array>
          </mxGeometry>
        </mxCell>
        <mxCell id="LGjzmEfDbxT8cVo_mgAx-258" value="temp-&amp;gt;jewelry_arive_date, buffer" style="rounded=0;whiteSpace=wrap;html=1;" vertex="1" parent="1">
          <mxGeometry x="1160" y="2224.61" width="84" height="44.18" as="geometry" />
        </mxCell>
        <mxCell id="LGjzmEfDbxT8cVo_mgAx-279" style="edgeStyle=orthogonalEdgeStyle;rounded=0;orthogonalLoop=1;jettySize=auto;html=1;exitX=0.5;exitY=1;exitDx=0;exitDy=0;entryX=0.5;entryY=0;entryDx=0;entryDy=0;endArrow=classic;endFill=1;" edge="1" parent="1" source="LGjzmEfDbxT8cVo_mgAx-259" target="LGjzmEfDbxT8cVo_mgAx-260">
          <mxGeometry relative="1" as="geometry" />
        </mxCell>
        <mxCell id="LGjzmEfDbxT8cVo_mgAx-259" value="&quot;Введите новый вес&quot;" style="rounded=1;whiteSpace=wrap;html=1;" vertex="1" parent="1">
          <mxGeometry x="1268" y="2073.61" width="84" height="60" as="geometry" />
        </mxCell>
        <mxCell id="LGjzmEfDbxT8cVo_mgAx-285" style="edgeStyle=orthogonalEdgeStyle;rounded=0;orthogonalLoop=1;jettySize=auto;html=1;exitX=0.5;exitY=1;exitDx=0;exitDy=0;entryX=0.5;entryY=0;entryDx=0;entryDy=0;endArrow=classic;endFill=1;" edge="1" parent="1" source="LGjzmEfDbxT8cVo_mgAx-260" target="LGjzmEfDbxT8cVo_mgAx-261">
          <mxGeometry relative="1" as="geometry" />
        </mxCell>
        <mxCell id="LGjzmEfDbxT8cVo_mgAx-260" value="float_buf" style="rounded=0;whiteSpace=wrap;html=1;" vertex="1" parent="1">
          <mxGeometry x="1268" y="2152.61" width="84" height="60" as="geometry" />
        </mxCell>
        <mxCell id="LGjzmEfDbxT8cVo_mgAx-298" style="edgeStyle=orthogonalEdgeStyle;rounded=0;orthogonalLoop=1;jettySize=auto;html=1;exitX=0.5;exitY=1;exitDx=0;exitDy=0;endArrow=classic;endFill=1;" edge="1" parent="1" source="LGjzmEfDbxT8cVo_mgAx-261" target="LGjzmEfDbxT8cVo_mgAx-208">
          <mxGeometry relative="1" as="geometry">
            <mxPoint x="1308.97" y="2276.79" as="sourcePoint" />
            <mxPoint x="761" y="604" as="targetPoint" />
            <Array as="points">
              <mxPoint x="1309" y="2269" />
              <mxPoint x="1309" y="2289" />
              <mxPoint x="628" y="2289" />
              <mxPoint x="628" y="604" />
            </Array>
          </mxGeometry>
        </mxCell>
        <mxCell id="LGjzmEfDbxT8cVo_mgAx-261" value="jewelry_stone_weight = float_buf" style="rounded=0;whiteSpace=wrap;html=1;" vertex="1" parent="1">
          <mxGeometry x="1268" y="2224.61" width="84" height="44.18" as="geometry" />
        </mxCell>
        <mxCell id="LGjzmEfDbxT8cVo_mgAx-280" style="edgeStyle=orthogonalEdgeStyle;rounded=0;orthogonalLoop=1;jettySize=auto;html=1;exitX=0.5;exitY=1;exitDx=0;exitDy=0;entryX=0.5;entryY=0;entryDx=0;entryDy=0;endArrow=classic;endFill=1;" edge="1" parent="1" source="LGjzmEfDbxT8cVo_mgAx-262" target="LGjzmEfDbxT8cVo_mgAx-263">
          <mxGeometry relative="1" as="geometry" />
        </mxCell>
        <mxCell id="LGjzmEfDbxT8cVo_mgAx-262" value="&quot;Введите новое кол-во камней&quot;" style="rounded=1;whiteSpace=wrap;html=1;" vertex="1" parent="1">
          <mxGeometry x="1374" y="2073.61" width="84" height="60" as="geometry" />
        </mxCell>
        <mxCell id="LGjzmEfDbxT8cVo_mgAx-286" style="edgeStyle=orthogonalEdgeStyle;rounded=0;orthogonalLoop=1;jettySize=auto;html=1;exitX=0.5;exitY=1;exitDx=0;exitDy=0;entryX=0.5;entryY=0;entryDx=0;entryDy=0;endArrow=classic;endFill=1;" edge="1" parent="1" source="LGjzmEfDbxT8cVo_mgAx-263" target="LGjzmEfDbxT8cVo_mgAx-264">
          <mxGeometry relative="1" as="geometry" />
        </mxCell>
        <mxCell id="LGjzmEfDbxT8cVo_mgAx-263" value="int_buf" style="rounded=0;whiteSpace=wrap;html=1;" vertex="1" parent="1">
          <mxGeometry x="1374" y="2152.61" width="84" height="60" as="geometry" />
        </mxCell>
        <mxCell id="LGjzmEfDbxT8cVo_mgAx-297" style="edgeStyle=orthogonalEdgeStyle;rounded=0;orthogonalLoop=1;jettySize=auto;html=1;exitX=0.5;exitY=1;exitDx=0;exitDy=0;endArrow=classic;endFill=1;entryX=0.039;entryY=0.375;entryDx=0;entryDy=0;entryPerimeter=0;" edge="1" parent="1" target="LGjzmEfDbxT8cVo_mgAx-208">
          <mxGeometry relative="1" as="geometry">
            <mxPoint x="750" y="593.9200000000001" as="targetPoint" />
            <mxPoint x="1404" y="2268.79" as="sourcePoint" />
            <Array as="points">
              <mxPoint x="1403" y="2269" />
              <mxPoint x="1403" y="2294" />
              <mxPoint x="623" y="2294" />
              <mxPoint x="623" y="594" />
            </Array>
          </mxGeometry>
        </mxCell>
        <mxCell id="LGjzmEfDbxT8cVo_mgAx-264" value="jewelry_stone_count = int_buf" style="rounded=0;whiteSpace=wrap;html=1;" vertex="1" parent="1">
          <mxGeometry x="1374" y="2224.61" width="84" height="44.18" as="geometry" />
        </mxCell>
        <mxCell id="LGjzmEfDbxT8cVo_mgAx-281" style="edgeStyle=orthogonalEdgeStyle;rounded=0;orthogonalLoop=1;jettySize=auto;html=1;exitX=0.5;exitY=1;exitDx=0;exitDy=0;entryX=0.5;entryY=0;entryDx=0;entryDy=0;endArrow=classic;endFill=1;" edge="1" parent="1" source="LGjzmEfDbxT8cVo_mgAx-265" target="LGjzmEfDbxT8cVo_mgAx-266">
          <mxGeometry relative="1" as="geometry" />
        </mxCell>
        <mxCell id="LGjzmEfDbxT8cVo_mgAx-265" value="&quot;Введите новый вес в каратах&quot;" style="rounded=1;whiteSpace=wrap;html=1;" vertex="1" parent="1">
          <mxGeometry x="1482" y="2073.61" width="84" height="60" as="geometry" />
        </mxCell>
        <mxCell id="LGjzmEfDbxT8cVo_mgAx-287" style="edgeStyle=orthogonalEdgeStyle;rounded=0;orthogonalLoop=1;jettySize=auto;html=1;exitX=0.5;exitY=1;exitDx=0;exitDy=0;entryX=0.5;entryY=0;entryDx=0;entryDy=0;endArrow=classic;endFill=1;" edge="1" parent="1" source="LGjzmEfDbxT8cVo_mgAx-266" target="LGjzmEfDbxT8cVo_mgAx-267">
          <mxGeometry relative="1" as="geometry" />
        </mxCell>
        <mxCell id="LGjzmEfDbxT8cVo_mgAx-266" value="float_buf" style="rounded=0;whiteSpace=wrap;html=1;" vertex="1" parent="1">
          <mxGeometry x="1482" y="2152.61" width="84" height="60" as="geometry" />
        </mxCell>
        <mxCell id="LGjzmEfDbxT8cVo_mgAx-296" style="edgeStyle=orthogonalEdgeStyle;rounded=0;orthogonalLoop=1;jettySize=auto;html=1;exitX=0.5;exitY=1;exitDx=0;exitDy=0;entryX=0;entryY=0.25;entryDx=0;entryDy=0;endArrow=classic;endFill=1;" edge="1" parent="1" source="LGjzmEfDbxT8cVo_mgAx-267" target="LGjzmEfDbxT8cVo_mgAx-208">
          <mxGeometry relative="1" as="geometry">
            <Array as="points">
              <mxPoint x="1524" y="2299" />
              <mxPoint x="617" y="2299" />
              <mxPoint x="617" y="587" />
            </Array>
          </mxGeometry>
        </mxCell>
        <mxCell id="LGjzmEfDbxT8cVo_mgAx-267" value="jewelry_karat_weight = float_buf" style="rounded=0;whiteSpace=wrap;html=1;" vertex="1" parent="1">
          <mxGeometry x="1482" y="2224.61" width="84" height="44.18" as="geometry" />
        </mxCell>
        <mxCell id="LGjzmEfDbxT8cVo_mgAx-282" style="edgeStyle=orthogonalEdgeStyle;rounded=0;orthogonalLoop=1;jettySize=auto;html=1;exitX=0.5;exitY=1;exitDx=0;exitDy=0;entryX=0.5;entryY=0;entryDx=0;entryDy=0;endArrow=classic;endFill=1;" edge="1" parent="1" source="LGjzmEfDbxT8cVo_mgAx-268" target="LGjzmEfDbxT8cVo_mgAx-269">
          <mxGeometry relative="1" as="geometry" />
        </mxCell>
        <mxCell id="LGjzmEfDbxT8cVo_mgAx-268" value="&quot;Введите новую стоимость&quot;" style="rounded=1;whiteSpace=wrap;html=1;" vertex="1" parent="1">
          <mxGeometry x="1578" y="2073.61" width="84" height="60" as="geometry" />
        </mxCell>
        <mxCell id="LGjzmEfDbxT8cVo_mgAx-288" style="edgeStyle=orthogonalEdgeStyle;rounded=0;orthogonalLoop=1;jettySize=auto;html=1;exitX=0.5;exitY=1;exitDx=0;exitDy=0;entryX=0.5;entryY=0;entryDx=0;entryDy=0;endArrow=classic;endFill=1;" edge="1" parent="1" source="LGjzmEfDbxT8cVo_mgAx-269" target="LGjzmEfDbxT8cVo_mgAx-270">
          <mxGeometry relative="1" as="geometry" />
        </mxCell>
        <mxCell id="LGjzmEfDbxT8cVo_mgAx-269" value="float_buf" style="rounded=0;whiteSpace=wrap;html=1;" vertex="1" parent="1">
          <mxGeometry x="1578" y="2152.61" width="84" height="60" as="geometry" />
        </mxCell>
        <mxCell id="LGjzmEfDbxT8cVo_mgAx-295" style="edgeStyle=orthogonalEdgeStyle;rounded=0;orthogonalLoop=1;jettySize=auto;html=1;exitX=0.5;exitY=1;exitDx=0;exitDy=0;entryX=0.095;entryY=0.175;entryDx=0;entryDy=0;endArrow=classic;endFill=1;entryPerimeter=0;" edge="1" parent="1" source="LGjzmEfDbxT8cVo_mgAx-270" target="LGjzmEfDbxT8cVo_mgAx-208">
          <mxGeometry relative="1" as="geometry">
            <Array as="points">
              <mxPoint x="1620" y="2304" />
              <mxPoint x="612" y="2304" />
              <mxPoint x="612" y="578" />
            </Array>
          </mxGeometry>
        </mxCell>
        <mxCell id="LGjzmEfDbxT8cVo_mgAx-270" value="jewelry_cost = float_buf" style="rounded=0;whiteSpace=wrap;html=1;" vertex="1" parent="1">
          <mxGeometry x="1578" y="2224.61" width="84" height="44.18" as="geometry" />
        </mxCell>
        <mxCell id="LGjzmEfDbxT8cVo_mgAx-289" value="+++" style="text;html=1;align=center;verticalAlign=middle;resizable=0;points=[];autosize=1;strokeColor=none;" vertex="1" parent="1">
          <mxGeometry x="818" y="838" width="36" height="24" as="geometry" />
        </mxCell>
        <mxCell id="LGjzmEfDbxT8cVo_mgAx-292" value="temp=temp-&amp;gt;next;" style="rounded=0;whiteSpace=wrap;html=1;" vertex="1" parent="1">
          <mxGeometry x="1012" y="731" width="120" height="60" as="geometry" />
        </mxCell>
        <mxCell id="LGjzmEfDbxT8cVo_mgAx-302" value="" style="ellipse;whiteSpace=wrap;html=1;aspect=fixed;" vertex="1" parent="1">
          <mxGeometry x="1024" y="240" width="80" height="80" as="geometry" />
        </mxCell>
      </root>
    </mxGraphModel>
  </diagram>
</mxfile>
